<svg version="1.1" id="Layer_1" xmlns="http://www.w3.org/2000/svg" xmlns:xlink="http://www.w3.org/1999/xlink" x="0px" y="0px"
	 width="100%" viewBox="0 0 512 512" enable-background="new 0 0 512 512" xml:space="preserve">
<path fill="#FFFFFF" opacity="1.000000" stroke="none" 
	d="
M1.000001,212.000000 
	C1.000000,141.700150 1.000000,71.400307 1.000000,1.050231 
	C171.551910,1.050231 342.103821,1.050231 513.000000,1.050231 
	C513.000000,65.021019 513.000000,129.042664 512.654175,193.441040 
	C509.501862,187.463287 504.494690,184.199051 497.719910,185.123199 
	C490.481049,186.110672 483.374542,188.068405 476.019897,189.643387 
	C475.507233,188.772598 474.815948,187.862625 474.393829,186.841400 
	C469.009369,173.814926 463.230927,160.929794 458.418884,147.693802 
	C452.597656,131.681992 435.711823,120.976166 418.597412,120.986893 
	C362.781677,121.021873 306.965851,120.969933 251.150269,121.062599 
	C247.105438,121.069313 242.917892,121.456688 239.044632,122.547440 
	C226.613098,126.048294 217.007462,133.102783 211.893799,145.458359 
	C208.034317,154.783630 203.942551,164.012482 200.021698,173.312729 
	C197.671509,178.887299 195.451202,184.516632 193.165146,190.139526 
	C187.282700,188.419403 182.174789,186.540192 176.902695,185.469452 
	C167.710037,183.602432 158.983276,185.287582 156.411163,196.563232 
	C155.041168,202.568970 155.326309,209.287811 156.379791,215.424667 
	C157.654358,222.849396 162.665634,227.939926 170.235550,229.977356 
	C172.173065,230.498840 174.135315,230.928452 176.307861,231.453888 
	C169.331039,246.636673 165.622879,262.327820 165.233521,278.283081 
	C164.449265,310.420471 164.882645,342.591248 165.098572,374.746307 
	C165.142014,381.216461 168.300308,386.711090 174.326019,389.664825 
	C186.010727,395.392639 198.534393,392.552582 210.747543,392.622253 
	C212.729721,392.633575 214.827011,391.859375 216.684387,391.030121 
	C225.245193,387.207916 228.735947,380.090729 228.966568,371.139771 
	C229.136780,364.533569 229.000000,357.919525 229.000000,351.217896 
	C299.863647,351.217896 370.253082,351.217896 441.000000,351.217896 
	C441.000000,359.221558 440.982544,367.012848 441.005096,374.804016 
	C441.026459,382.184052 445.805695,388.739563 452.770081,391.007385 
	C463.399719,394.468689 474.477020,393.754517 485.131256,392.640625 
	C501.015350,390.980011 504.297943,380.807343 504.128235,369.360016 
	C503.728241,342.374451 503.678680,315.373810 504.106689,288.389099 
	C504.421326,268.551575 500.222992,249.782883 492.859528,231.125397 
	C502.484283,230.446732 509.285889,225.845093 513.000000,217.000000 
	C513.000000,315.624939 513.000000,414.249878 513.000000,512.937378 
	C342.447266,512.937378 171.894516,512.937378 1.000000,512.937378 
	C1.000000,439.312256 1.000000,365.623962 1.342648,291.555603 
	C5.709776,300.046570 18.438650,301.211548 24.059254,294.456604 
	C34.083607,282.409027 38.496502,267.968201 38.589893,252.907745 
	C38.668053,240.303101 35.342663,227.770447 27.993435,216.878998 
	C22.746490,209.103104 18.915272,206.539337 10.164721,208.136902 
	C6.980843,208.718155 4.047598,210.672256 1.000001,212.000000 
M115.999863,230.659454 
	C117.563332,242.528687 118.884560,254.313400 117.137375,266.390289 
	C115.048500,280.828949 111.576942,294.752045 105.502243,308.013611 
	C100.430763,319.085022 93.854584,329.178925 86.054642,338.531250 
	C81.032028,344.553467 82.446800,353.186371 88.856804,357.402710 
	C95.975616,362.085297 101.502174,360.828705 108.370956,353.138245 
	C120.364235,339.710266 128.701553,324.031525 134.695053,307.325287 
	C141.884064,287.286682 145.872910,266.412720 143.853134,244.994507 
	C142.732819,233.114395 140.891342,221.183701 138.016495,209.613327 
	C132.715332,188.277924 122.339165,169.299850 108.633698,152.118637 
	C103.227654,145.341599 94.341438,144.478317 88.446960,149.162842 
	C82.600464,153.809250 82.774109,163.129715 87.639748,169.311020 
	C92.814613,175.885178 97.729088,182.768250 101.887245,190.015594 
	C108.965340,202.352219 112.781296,215.987228 115.999863,230.659454 
M78.966980,302.363922 
	C89.536079,280.433136 93.261703,257.347107 88.826401,233.449509 
	C85.579285,215.953827 79.354088,199.478165 67.357979,185.643326 
	C62.624313,180.184097 53.648327,177.894226 48.558685,182.015823 
	C42.130638,187.221313 41.167763,194.919022 46.070820,201.393738 
	C60.136070,219.967575 66.218643,240.479630 63.052723,263.727234 
	C60.961720,279.081635 55.670528,293.063782 45.487259,304.748566 
	C41.717579,309.074066 42.679386,318.673737 45.688438,322.030396 
	C50.150715,327.008148 59.336899,327.440216 63.555836,323.974670 
	C70.455467,318.307190 74.526947,310.695007 78.966980,302.363922 
z"/>
<path fill="#000000" opacity="1.000000" stroke="none" 
	d="
M513.000000,216.531372 
	C509.285889,225.845093 502.484283,230.446732 492.859528,231.125397 
	C500.222992,249.782883 504.421326,268.551575 504.106689,288.389099 
	C503.678680,315.373810 503.728241,342.374451 504.128235,369.360016 
	C504.297943,380.807343 501.015350,390.980011 485.131256,392.640625 
	C474.477020,393.754517 463.399719,394.468689 452.770081,391.007385 
	C445.805695,388.739563 441.026459,382.184052 441.005096,374.804016 
	C440.982544,367.012848 441.000000,359.221558 441.000000,351.217896 
	C370.253082,351.217896 299.863647,351.217896 229.000000,351.217896 
	C229.000000,357.919525 229.136780,364.533569 228.966568,371.139771 
	C228.735947,380.090729 225.245193,387.207916 216.684387,391.030121 
	C214.827011,391.859375 212.729721,392.633575 210.747543,392.622253 
	C198.534393,392.552582 186.010727,395.392639 174.326019,389.664825 
	C168.300308,386.711090 165.142014,381.216461 165.098572,374.746307 
	C164.882645,342.591248 164.449265,310.420471 165.233521,278.283081 
	C165.622879,262.327820 169.331039,246.636673 176.307861,231.453888 
	C174.135315,230.928452 172.173065,230.498840 170.235550,229.977356 
	C162.665634,227.939926 157.654358,222.849396 156.379791,215.424667 
	C155.326309,209.287811 155.041168,202.568970 156.411163,196.563232 
	C158.983276,185.287582 167.710037,183.602432 176.902695,185.469452 
	C182.174789,186.540192 187.282700,188.419403 193.165146,190.139526 
	C195.451202,184.516632 197.671509,178.887299 200.021698,173.312729 
	C203.942551,164.012482 208.034317,154.783630 211.893799,145.458359 
	C217.007462,133.102783 226.613098,126.048294 239.044632,122.547440 
	C242.917892,121.456688 247.105438,121.069313 251.150269,121.062599 
	C306.965851,120.969933 362.781677,121.021873 418.597412,120.986893 
	C435.711823,120.976166 452.597656,131.681992 458.418884,147.693802 
	C463.230927,160.929794 469.009369,173.814926 474.393829,186.841400 
	C474.815948,187.862625 475.507233,188.772598 476.019897,189.643387 
	C483.374542,188.068405 490.481049,186.110672 497.719910,185.123199 
	C504.494690,184.199051 509.501862,187.463287 512.654175,193.908875 
	C513.000000,201.354248 513.000000,208.708496 513.000000,216.531372 
M452.038513,197.406357 
	C445.868988,182.273727 439.750488,167.119995 433.507996,152.017517 
	C430.472046,144.672562 421.237030,137.813416 412.473328,137.860901 
	C360.475739,138.142654 308.475861,137.982224 256.476746,138.018890 
	C248.561890,138.024475 241.790802,141.333328 238.170242,148.168716 
	C233.170776,157.607361 229.242065,167.632233 225.151535,177.528687 
	C219.279037,191.736389 213.486008,205.983246 208.027802,220.353424 
	C204.925125,228.522018 208.350342,232.998642 216.983994,232.998856 
	C294.982666,233.000809 372.981750,232.879868 450.979553,233.146759 
	C461.125916,233.181488 464.442596,227.250854 460.608063,218.080963 
	C457.828796,211.434570 455.222961,204.715668 452.038513,197.406357 
M227.500275,274.000000 
	C221.836258,274.000000 216.171860,273.958252 210.508347,274.011902 
	C204.978302,274.064301 202.057800,276.949860 202.014328,282.450348 
	C201.956406,289.779785 201.992508,297.110016 202.002197,304.439911 
	C202.011261,311.302643 204.644241,313.991608 211.397430,313.996307 
	C227.723114,314.007660 244.048798,314.004608 260.374481,313.997803 
	C267.213562,313.994965 269.896362,311.445190 269.981232,304.654694 
	C270.066589,297.825623 270.016541,290.994598 269.995300,284.164520 
	C269.974579,277.495819 266.569489,274.024658 259.985382,274.007355 
	C249.490372,273.979767 238.995239,274.000000 227.500275,274.000000 
M450.456848,274.000000 
	C436.126465,274.000000 421.795990,273.969177 407.465759,274.015625 
	C401.956299,274.033478 399.055450,276.971191 399.013336,282.496521 
	C398.958740,289.661316 398.999878,296.826843 399.000031,303.992035 
	C399.000183,311.573029 401.374207,313.996429 408.831970,313.998566 
	C424.995331,314.003235 441.165894,313.723297 457.318176,314.146301 
	C463.167969,314.299500 466.786957,310.934021 466.955841,304.614899 
	C467.147217,297.454834 467.065826,290.284882 466.978424,283.120758 
	C466.912689,277.731506 463.304718,274.167969 457.936157,274.010529 
	C455.771790,273.947021 453.604034,274.000031 450.456848,274.000000 
z"/>
<path fill="#000000" opacity="1.000000" stroke="none" 
	d="
M1.000001,212.463181 
	C4.047598,210.672256 6.980843,208.718155 10.164721,208.136902 
	C18.915272,206.539337 22.746490,209.103104 27.993435,216.878998 
	C35.342663,227.770447 38.668053,240.303101 38.589893,252.907745 
	C38.496502,267.968201 34.083607,282.409027 24.059254,294.456604 
	C18.438650,301.211548 5.709776,300.046570 1.342648,291.087769 
	C1.000000,287.307098 1.000000,283.614166 1.338319,279.385071 
	C10.079485,269.323517 13.611624,258.574921 11.133683,245.766907 
	C9.590324,237.789581 5.290100,231.471512 1.000000,225.000000 
	C1.000000,220.975449 1.000000,216.950912 1.000001,212.463181 
z"/>
<path fill="#FFFFFF" opacity="1.000000" stroke="none" 
	d="
M1.000000,225.468658 
	C5.290100,231.471512 9.590324,237.789581 11.133683,245.766907 
	C13.611624,258.574921 10.079485,269.323517 1.338319,278.924438 
	C1.000000,261.312439 1.000000,243.624878 1.000000,225.468658 
z"/>
<path fill="#000000" opacity="1.000000" stroke="none" 
	d="
M115.998947,230.214447 
	C112.781296,215.987228 108.965340,202.352219 101.887245,190.015594 
	C97.729088,182.768250 92.814613,175.885178 87.639748,169.311020 
	C82.774109,163.129715 82.600464,153.809250 88.446960,149.162842 
	C94.341438,144.478317 103.227654,145.341599 108.633698,152.118637 
	C122.339165,169.299850 132.715332,188.277924 138.016495,209.613327 
	C140.891342,221.183701 142.732819,233.114395 143.853134,244.994507 
	C145.872910,266.412720 141.884064,287.286682 134.695053,307.325287 
	C128.701553,324.031525 120.364235,339.710266 108.370956,353.138245 
	C101.502174,360.828705 95.975616,362.085297 88.856804,357.402710 
	C82.446800,353.186371 81.032028,344.553467 86.054642,338.531250 
	C93.854584,329.178925 100.430763,319.085022 105.502243,308.013611 
	C111.576942,294.752045 115.048500,280.828949 117.137375,266.390289 
	C118.884560,254.313400 117.563332,242.528687 115.998947,230.214447 
z"/>
<path fill="#000000" opacity="1.000000" stroke="none" 
	d="
M78.740295,302.676758 
	C74.526947,310.695007 70.455467,318.307190 63.555836,323.974670 
	C59.336899,327.440216 50.150715,327.008148 45.688438,322.030396 
	C42.679386,318.673737 41.717579,309.074066 45.487259,304.748566 
	C55.670528,293.063782 60.961720,279.081635 63.052723,263.727234 
	C66.218643,240.479630 60.136070,219.967575 46.070820,201.393738 
	C41.167763,194.919022 42.130638,187.221313 48.558685,182.015823 
	C53.648327,177.894226 62.624313,180.184097 67.357979,185.643326 
	C79.354088,199.478165 85.579285,215.953827 88.826401,233.449509 
	C93.261703,257.347107 89.536079,280.433136 78.740295,302.676758 
z"/>
<path fill="#FFFFFF" opacity="1.000000" stroke="none" 
	d="
M452.289124,197.717728 
	C455.222961,204.715668 457.828796,211.434570 460.608063,218.080963 
	C464.442596,227.250854 461.125916,233.181488 450.979553,233.146759 
	C372.981750,232.879868 294.982666,233.000809 216.983994,232.998856 
	C208.350342,232.998642 204.925125,228.522018 208.027802,220.353424 
	C213.486008,205.983246 219.279037,191.736389 225.151535,177.528687 
	C229.242065,167.632233 233.170776,157.607361 238.170242,148.168716 
	C241.790802,141.333328 248.561890,138.024475 256.476746,138.018890 
	C308.475861,137.982224 360.475739,138.142654 412.473328,137.860901 
	C421.237030,137.813416 430.472046,144.672562 433.507996,152.017517 
	C439.750488,167.119995 445.868988,182.273727 452.289124,197.717728 
z"/>
<path fill="#FFFFFF" opacity="1.000000" stroke="none" 
	d="
M228.000214,274.000000 
	C238.995239,274.000000 249.490372,273.979767 259.985382,274.007355 
	C266.569489,274.024658 269.974579,277.495819 269.995300,284.164520 
	C270.016541,290.994598 270.066589,297.825623 269.981232,304.654694 
	C269.896362,311.445190 267.213562,313.994965 260.374481,313.997803 
	C244.048798,314.004608 227.723114,314.007660 211.397430,313.996307 
	C204.644241,313.991608 202.011261,311.302643 202.002197,304.439911 
	C201.992508,297.110016 201.956406,289.779785 202.014328,282.450348 
	C202.057800,276.949860 204.978302,274.064301 210.508347,274.011902 
	C216.171860,273.958252 221.836258,274.000000 228.000214,274.000000 
z"/>
<path fill="#FFFFFF" opacity="1.000000" stroke="none" 
	d="
M450.947327,274.000000 
	C453.604034,274.000031 455.771790,273.947021 457.936157,274.010529 
	C463.304718,274.167969 466.912689,277.731506 466.978424,283.120758 
	C467.065826,290.284882 467.147217,297.454834 466.955841,304.614899 
	C466.786957,310.934021 463.167969,314.299500 457.318176,314.146301 
	C441.165894,313.723297 424.995331,314.003235 408.831970,313.998566 
	C401.374207,313.996429 399.000183,311.573029 399.000031,303.992035 
	C398.999878,296.826843 398.958740,289.661316 399.013336,282.496521 
	C399.055450,276.971191 401.956299,274.033478 407.465759,274.015625 
	C421.795990,273.969177 436.126465,274.000000 450.947327,274.000000 
z"/>
</svg>