<?xml version="1.0" standalone="no"?>
<!DOCTYPE svg PUBLIC "-//W3C//DTD SVG 20010904//EN"
 "http://www.w3.org/TR/2001/REC-SVG-20010904/DTD/svg10.dtd">
<svg version="1.0" xmlns="http://www.w3.org/2000/svg"
 width="1280.000000pt" height="878.000000pt" viewBox="0 0 1280.000000 878.000000"
 preserveAspectRatio="xMidYMid meet">
<g transform="translate(0.000000,878.000000) scale(0.100000,-0.100000)"
fill="#000000" stroke="none">
<path d="M2959 8776 c-2 -2 -69 -11 -149 -20 -431 -49 -812 -155 -1158 -321
-577 -279 -948 -647 -1247 -1236 -212 -418 -330 -825 -381 -1319 -33 -320 -31
-384 16 -785 71 -593 298 -1182 635 -1647 176 -243 512 -513 854 -687 371
-189 791 -323 1271 -405 l185 -31 42 -250 c23 -138 82 -500 132 -805 50 -305
116 -705 146 -889 30 -183 60 -340 66 -348 7 -8 20 -18 30 -24 45 -24 50 -12
459 1161 216 619 397 1131 403 1138 7 9 574 12 2772 12 2360 0 2784 2 2916 15
705 67 1332 314 1796 707 525 444 916 1236 1013 2053 47 401 49 465 16 785
-51 494 -169 901 -381 1319 -299 589 -670 957 -1247 1236 -338 162 -682 259
-1148 322 -115 16 -399 18 -3581 20 -1900 2 -3457 1 -3460 -1z"/>
</g>
</svg>
