<?xml version="1.0" encoding="UTF-8"?>
<!DOCTYPE svg PUBLIC "-//W3C//DTD SVG 1.1//EN" "http://www.w3.org/Graphics/SVG/1.1/DTD/svg11.dtd">
<svg xmlns="http://www.w3.org/2000/svg" version="1.1" width="835px" height="475px" style="shape-rendering:geometricPrecision; text-rendering:geometricPrecision; image-rendering:optimizeQuality; fill-rule:evenodd; clip-rule:evenodd" xmlns:xlink="http://www.w3.org/1999/xlink">
<g><path style="opacity:1" fill="#010101" d="M 215.5,-0.5 C 249.833,-0.5 284.167,-0.5 318.5,-0.5C 328.954,1.14296 339.621,1.80963 350.5,1.5C 355.363,1.81946 360.03,1.48612 364.5,0.5C 367.5,0.5 370.5,0.5 373.5,0.5C 373.97,1.69348 374.97,2.36015 376.5,2.5C 377.726,2.48046 378.726,2.14713 379.5,1.5C 380.167,1.5 380.833,1.5 381.5,1.5C 381.611,2.11742 381.944,2.61742 382.5,3C 386.44,4.01535 390.44,4.51535 394.5,4.5C 399.089,7.02419 404.089,8.35753 409.5,8.5C 409.833,8.5 410.167,8.5 410.5,8.5C 411.552,10.256 413.219,10.9227 415.5,10.5C 415.833,10.5 416.167,10.5 416.5,10.5C 417.641,11.339 418.974,12.0057 420.5,12.5C 421.107,12.3764 421.44,12.0431 421.5,11.5C 421.833,11.5 422.167,11.5 422.5,11.5C 422.47,12.4972 422.97,13.1639 424,13.5C 428.353,15.2137 432.853,16.2137 437.5,16.5C 441.098,18.6918 445.098,19.6918 449.5,19.5C 450.552,21.256 452.219,21.9227 454.5,21.5C 454.833,21.5 455.167,21.5 455.5,21.5C 458.654,23.0022 461.987,24.3355 465.5,25.5C 466.107,25.3764 466.44,25.0431 466.5,24.5C 466.833,24.5 467.167,24.5 467.5,24.5C 469.841,26.8506 472.841,27.8506 476.5,27.5C 482.083,30.3567 488.083,32.0234 494.5,32.5C 495.791,32.2627 496.791,32.596 497.5,33.5C 503.083,36.3567 509.083,38.0234 515.5,38.5C 516.791,38.2627 517.791,38.596 518.5,39.5C 519.641,40.339 520.974,41.0057 522.5,41.5C 523.107,41.3764 523.44,41.0431 523.5,40.5C 523.833,40.5 524.167,40.5 524.5,40.5C 527.413,43.3655 531.079,44.6988 535.5,44.5C 535.833,44.5 536.167,44.5 536.5,44.5C 537.641,45.339 538.974,46.0057 540.5,46.5C 541.107,46.3764 541.44,46.0431 541.5,45.5C 541.833,45.5 542.167,45.5 542.5,45.5C 545.413,48.3655 549.079,49.6988 553.5,49.5C 555.099,49.2322 556.432,49.5655 557.5,50.5C 563.083,53.3567 569.083,55.0234 575.5,55.5C 576.791,55.2627 577.791,55.596 578.5,56.5C 581.294,58.439 584.294,59.1057 587.5,58.5C 588.99,60.2798 590.99,60.9465 593.5,60.5C 594.879,62.5969 596.545,62.9302 598.5,61.5C 598.833,61.5 599.167,61.5 599.5,61.5C 600.184,63.1852 601.517,64.1852 603.5,64.5C 604.107,64.3764 604.44,64.0431 604.5,63.5C 604.833,63.5 605.167,63.5 605.5,63.5C 606.552,65.256 608.219,65.9227 610.5,65.5C 610.833,65.5 611.167,65.5 611.5,65.5C 612.552,67.256 614.219,67.9227 616.5,67.5C 616.833,67.5 617.167,67.5 617.5,67.5C 618.641,68.339 619.974,69.0057 621.5,69.5C 622.107,69.3764 622.44,69.0431 622.5,68.5C 622.833,68.5 623.167,68.5 623.5,68.5C 626.413,71.3655 630.079,72.6988 634.5,72.5C 634.833,72.5 635.167,72.5 635.5,72.5C 636.879,74.5969 638.545,74.9302 640.5,73.5C 640.833,73.5 641.167,73.5 641.5,73.5C 642.184,75.1852 643.517,76.1852 645.5,76.5C 646.107,76.3764 646.44,76.0431 646.5,75.5C 646.833,75.5 647.167,75.5 647.5,75.5C 648.635,77.2132 650.302,77.8799 652.5,77.5C 652.833,77.5 653.167,77.5 653.5,77.5C 654.635,79.2132 656.302,79.8799 658.5,79.5C 658.833,79.5 659.167,79.5 659.5,79.5C 664.662,82.5444 670.328,84.2111 676.5,84.5C 679.294,86.439 682.294,87.1057 685.5,86.5C 688.413,89.3655 692.079,90.6988 696.5,90.5C 696.833,90.5 697.167,90.5 697.5,90.5C 698.641,91.339 699.974,92.0057 701.5,92.5C 702.107,92.3764 702.44,92.0431 702.5,91.5C 702.833,91.5 703.167,91.5 703.5,91.5C 706.413,94.3655 710.079,95.6988 714.5,95.5C 716.099,95.2322 717.432,95.5655 718.5,96.5C 720.54,97.9422 722.873,98.9422 725.5,99.5C 726.107,99.3764 726.44,99.0431 726.5,98.5C 726.833,98.5 727.167,98.5 727.5,98.5C 728.635,100.213 730.302,100.88 732.5,100.5C 735.079,100.394 737.412,101.061 739.5,102.5C 740.641,103.339 741.974,104.006 743.5,104.5C 744.107,104.376 744.44,104.043 744.5,103.5C 744.833,103.5 745.167,103.5 745.5,103.5C 745.47,104.497 745.97,105.164 747,105.5C 749.434,106.322 751.934,106.656 754.5,106.5C 755.609,106.557 756.609,106.89 757.5,107.5C 763.666,110.886 770.333,112.886 777.5,113.5C 778.641,114.339 779.974,115.006 781.5,115.5C 782.107,115.376 782.44,115.043 782.5,114.5C 782.833,114.5 783.167,114.5 783.5,114.5C 786.413,117.365 790.079,118.699 794.5,118.5C 794.833,118.5 795.167,118.5 795.5,118.5C 796.995,120.345 798.662,120.678 800.5,119.5C 800.833,119.5 801.167,119.5 801.5,119.5C 802.509,122.166 804.176,122.833 806.5,121.5C 806.833,121.5 807.167,121.5 807.5,121.5C 809.416,123.977 812.083,124.977 815.5,124.5C 815.833,124.5 816.167,124.5 816.5,124.5C 818.22,125.864 820.22,126.864 822.5,127.5C 823.107,127.376 823.44,127.043 823.5,126.5C 823.833,126.5 824.167,126.5 824.5,126.5C 826.416,128.977 829.083,129.977 832.5,129.5C 833.167,129.5 833.833,129.5 834.5,129.5C 834.5,177.833 834.5,226.167 834.5,274.5C 833.275,275.152 832.608,276.319 832.5,278C 832.514,279.385 832.848,280.551 833.5,281.5C 833.5,281.833 833.5,282.167 833.5,282.5C 831.466,284.655 831.133,286.988 832.5,289.5C 832.5,289.833 832.5,290.167 832.5,290.5C 830.558,295.056 829.892,300.056 830.5,305.5C 830.747,308.939 830.414,312.272 829.5,315.5C 828.475,318.974 827.808,322.64 827.5,326.5C 827.232,328.099 827.566,329.432 828.5,330.5C 828.5,330.833 828.5,331.167 828.5,331.5C 827.275,332.152 826.608,333.319 826.5,335C 826.514,336.385 826.848,337.551 827.5,338.5C 827.5,338.833 827.5,339.167 827.5,339.5C 825.678,343.214 824.678,347.381 824.5,352C 824.528,353.07 824.861,353.903 825.5,354.5C 825.55,360.389 824.884,366.056 823.5,371.5C 821.837,376.12 821.503,380.787 822.5,385.5C 822.5,385.833 822.5,386.167 822.5,386.5C 821.883,386.611 821.383,386.944 821,387.5C 819.505,395.464 818.338,403.464 817.5,411.5C 815.267,416.401 811.934,420.401 807.5,423.5C 805.973,423.427 804.973,424.094 804.5,425.5C 802.708,425.366 801.042,425.699 799.5,426.5C 720.5,426.5 641.5,426.5 562.5,426.5C 551.654,426.172 540.987,426.506 530.5,427.5C 526.5,427.5 522.5,427.5 518.5,427.5C 514.426,426.046 510.093,425.379 505.5,425.5C 502.645,425.503 499.978,425.836 497.5,426.5C 496.833,426.5 496.167,426.5 495.5,426.5C 495.03,425.307 494.03,424.64 492.5,424.5C 490.182,424.003 487.848,423.67 485.5,423.5C 482.992,421.076 479.992,419.41 476.5,418.5C 475.508,418.672 474.842,418.338 474.5,417.5C 471.071,413.738 467.071,410.738 462.5,408.5C 460.1,405.097 457.1,402.43 453.5,400.5C 452.167,398.5 450.5,396.833 448.5,395.5C 447.833,395.5 447.5,395.167 447.5,394.5C 445.481,392.81 443.481,391.144 441.5,389.5C 437.773,384.77 433.44,380.77 428.5,377.5C 427.833,375.5 426.5,374.167 424.5,373.5C 420.441,368.438 415.774,364.105 410.5,360.5C 400.494,350.495 390.161,340.828 379.5,331.5C 376.371,327.869 373.037,324.369 369.5,321C 368.251,320.26 367.251,320.427 366.5,321.5C 362.698,322.32 359.364,323.986 356.5,326.5C 356.158,327.338 355.492,327.672 354.5,327.5C 349.924,328.81 345.257,329.81 340.5,330.5C 335.489,330.334 330.489,330.501 325.5,331C 323.963,332.11 323.297,333.61 323.5,335.5C 321.461,336.911 320.461,338.911 320.5,341.5C 318.952,341.821 318.285,342.821 318.5,344.5C 317.094,344.973 316.427,345.973 316.5,347.5C 314.05,349.629 312.383,352.296 311.5,355.5C 307.806,359.551 305.14,364.217 303.5,369.5C 301.554,370.035 300.554,371.368 300.5,373.5C 297.479,376.206 295.479,379.539 294.5,383.5C 294.5,384.167 294.167,384.5 293.5,384.5C 291.331,386.34 289.998,388.674 289.5,391.5C 288.094,391.973 287.427,392.973 287.5,394.5C 285.178,395.802 283.845,397.802 283.5,400.5C 283.672,401.492 283.338,402.158 282.5,402.5C 278.047,407.967 274.381,413.967 271.5,420.5C 269.331,422.34 267.998,424.674 267.5,427.5C 266.094,427.973 265.427,428.973 265.5,430.5C 262.498,433.161 260.498,436.495 259.5,440.5C 257.057,443.052 255.39,446.052 254.5,449.5C 251.498,452.161 249.498,455.495 248.5,459.5C 248.672,460.492 248.338,461.158 247.5,461.5C 244.793,464.247 243.127,467.58 242.5,471.5C 241.448,473.256 239.781,473.923 237.5,473.5C 235.393,472.532 233.059,472.198 230.5,472.5C 221.435,471.864 212.769,472.53 204.5,474.5C 136.167,474.5 67.8333,474.5 -0.5,474.5C -0.5,448.167 -0.5,421.833 -0.5,395.5C 1.51948,394.462 1.85281,393.128 0.5,391.5C 0.5,391.167 0.5,390.833 0.5,390.5C 2.10422,389.713 2.77089,388.38 2.5,386.5C 4.19107,385.136 5.85774,383.803 7.5,382.5C 11.6472,381.675 15.9805,381.175 20.5,381C 57.8333,380.333 95.1667,380.333 132.5,381C 134.708,381.191 136.708,381.691 138.5,382.5C 139.833,384.5 141.5,386.167 143.5,387.5C 143.427,389.027 144.094,390.027 145.5,390.5C 145.068,393.877 145.735,396.877 147.5,399.5C 147.5,401.167 147.5,402.833 147.5,404.5C 146.169,420.902 146.169,437.402 147.5,454C 170.67,454.83 193.67,454.663 216.5,453.5C 217.338,453.158 217.672,452.492 217.5,451.5C 219.924,448.992 221.59,445.992 222.5,442.5C 225.644,439.986 227.644,436.653 228.5,432.5C 228.328,431.508 228.662,430.842 229.5,430.5C 232.164,428.516 233.831,425.849 234.5,422.5C 238.636,416.915 242.303,410.915 245.5,404.5C 247.093,403.652 248.26,402.319 249,400.5C 249.483,399.552 249.649,398.552 249.5,397.5C 251.201,396.789 252.201,395.455 252.5,393.5C 254.588,391.664 255.921,389.331 256.5,386.5C 259.551,383.424 261.884,379.758 263.5,375.5C 265.669,373.66 267.002,371.326 267.5,368.5C 268.906,368.027 269.573,367.027 269.5,365.5C 271.104,364.713 271.771,363.38 271.5,361.5C 273.446,360.965 274.446,359.632 274.5,357.5C 276.669,355.66 278.002,353.326 278.5,350.5C 280.262,349.738 281.262,348.404 281.5,346.5C 283.924,343.992 285.59,340.992 286.5,337.5C 289.164,335.516 290.831,332.849 291.5,329.5C 299.984,321.999 300.317,314.332 292.5,306.5C 291.662,306.158 291.328,305.492 291.5,304.5C 291.614,301.784 290.614,299.784 288.5,298.5C 288.5,298.167 288.5,297.833 288.5,297.5C 289.885,296.053 289.552,295.053 287.5,294.5C 287.5,294.167 287.5,293.833 287.5,293.5C 288.833,286.5 288.833,279.5 287.5,272.5C 287.5,271.833 287.5,271.167 287.5,270.5C 289.755,268.469 291.088,265.802 291.5,262.5C 291.328,261.508 291.662,260.842 292.5,260.5C 293.267,259.828 293.934,258.995 294.5,258C 294.272,257.601 293.938,257.435 293.5,257.5C 293.5,257.167 293.5,256.833 293.5,256.5C 295.424,256.289 295.757,255.623 294.5,254.5C 294.5,254.167 294.5,253.833 294.5,253.5C 295.573,252.749 295.74,251.749 295,250.5C 282.664,239.663 270.497,228.663 258.5,217.5C 254.747,212.742 250.414,208.742 245.5,205.5C 244.167,203.5 242.5,201.833 240.5,200.5C 239.167,198.5 237.5,196.833 235.5,195.5C 234.833,195.5 234.5,195.167 234.5,194.5C 231.105,190.102 227.105,186.436 222.5,183.5C 220.897,181.046 218.897,179.046 216.5,177.5C 215.5,175.833 214.167,174.5 212.5,173.5C 211.5,173.167 210.833,172.5 210.5,171.5C 209.5,169.833 208.167,168.5 206.5,167.5C 205.5,167.167 204.833,166.5 204.5,165.5C 200.652,160.467 197.319,155.134 194.5,149.5C 193.987,145.447 193.154,141.447 192,137.5C 191.617,136.944 191.117,136.611 190.5,136.5C 190.5,135.833 190.5,135.167 190.5,134.5C 191.473,132.052 191.806,129.385 191.5,126.5C 192.148,113.124 191.481,100.124 189.5,87.5C 189.5,76.8333 189.5,66.1667 189.5,55.5C 191.471,46.8955 192.138,37.8955 191.5,28.5C 191.675,26.3792 191.341,24.3792 190.5,22.5C 190.401,19.7628 190.735,17.0961 191.5,14.5C 193.408,13.5144 194.408,11.8477 194.5,9.5C 196.5,8.16667 198.167,6.5 199.5,4.5C 201.966,3.7023 203.966,2.36897 205.5,0.5C 205.833,0.5 206.167,0.5 206.5,0.5C 207.449,1.15239 208.615,1.48572 210,1.5C 212.221,1.60683 214.054,0.940163 215.5,-0.5 Z M 777.5,168.5 C 781.096,169.387 784.762,170.387 788.5,171.5C 789.833,173.5 791.5,175.167 793.5,176.5C 793.565,179.428 794.232,182.095 795.5,184.5C 795.5,184.833 795.5,185.167 795.5,185.5C 795.194,188.385 795.527,191.052 796.5,193.5C 796.5,194.167 796.5,194.833 796.5,195.5C 796.172,206.014 796.506,216.347 797.5,226.5C 797.5,265.5 797.5,304.5 797.5,343.5C 796.506,353.653 796.172,363.986 796.5,374.5C 796.5,375.167 796.5,375.833 796.5,376.5C 795.549,377.919 795.216,379.585 795.5,381.5C 795.5,382.5 795.5,383.5 795.5,384.5C 794.087,387.219 793.42,390.219 793.5,393.5C 790.94,395.273 788.607,397.273 786.5,399.5C 783.14,399.616 779.807,399.949 776.5,400.5C 772.629,400.185 768.962,400.518 765.5,401.5C 761.167,401.5 756.833,401.5 752.5,401.5C 674.5,401.5 596.5,401.5 518.5,401.5C 517.341,399.75 515.674,398.75 513.5,398.5C 513.5,397.833 513.167,397.5 512.5,397.5C 511.581,394.911 509.914,392.911 507.5,391.5C 506.488,388.743 505.488,386.076 504.5,383.5C 503.599,321.505 503.265,259.505 503.5,197.5C 504.479,194.375 504.813,191.042 504.5,187.5C 504.5,187.167 504.5,186.833 504.5,186.5C 505.768,184.095 506.435,181.428 506.5,178.5C 507.906,178.027 508.573,177.027 508.5,175.5C 511.94,172.313 515.94,170.313 520.5,169.5C 520.833,169.5 521.167,169.5 521.5,169.5C 524.713,169.81 527.713,169.477 530.5,168.5C 612.834,167.185 695.167,167.185 777.5,168.5 Z M 647.5,209.5 C 651.167,209.5 654.833,209.5 658.5,209.5C 661.997,210.402 665.663,211.069 669.5,211.5C 669.833,211.5 670.167,211.5 670.5,211.5C 676.274,213.222 681.941,215.222 687.5,217.5C 691.148,220.66 695.148,223.327 699.5,225.5C 703.167,229.833 707.167,233.833 711.5,237.5C 713.062,241.392 715.395,244.725 718.5,247.5C 718.229,249.38 718.896,250.713 720.5,251.5C 720.5,251.833 720.5,252.167 720.5,252.5C 721.596,255.032 722.929,257.365 724.5,259.5C 724.5,259.833 724.5,260.167 724.5,260.5C 725.261,266.091 726.595,271.424 728.5,276.5C 728.5,282.5 728.5,288.5 728.5,294.5C 726.563,299.582 725.23,304.915 724.5,310.5C 721.727,314.385 719.727,318.718 718.5,323.5C 717.662,323.842 717.328,324.508 717.5,325.5C 710.868,333.799 703.535,341.466 695.5,348.5C 692.966,348.259 691.3,349.259 690.5,351.5C 688.847,351.66 687.514,352.326 686.5,353.5C 681.117,354.734 676.117,356.734 671.5,359.5C 671.167,359.5 670.833,359.5 670.5,359.5C 665.924,359.438 661.591,360.105 657.5,361.5C 654.167,361.5 650.833,361.5 647.5,361.5C 646.081,360.549 644.415,360.216 642.5,360.5C 641.833,360.5 641.167,360.5 640.5,360.5C 638.393,359.532 636.059,359.198 633.5,359.5C 618.22,353.858 604.887,345.191 593.5,333.5C 593.262,331.596 592.262,330.262 590.5,329.5C 590.262,327.596 589.262,326.262 587.5,325.5C 586.029,321.224 584.029,317.224 581.5,313.5C 580.616,308.946 579.283,304.613 577.5,300.5C 576.167,290.5 576.167,280.5 577.5,270.5C 579.44,266.085 580.773,261.418 581.5,256.5C 582.338,256.158 582.672,255.492 582.5,254.5C 587.091,246.318 592.424,238.651 598.5,231.5C 599.167,231.5 599.5,231.167 599.5,230.5C 602.747,229.588 605.08,227.588 606.5,224.5C 610.434,222.88 613.767,220.546 616.5,217.5C 617.873,217.657 619.207,217.49 620.5,217C 622.618,215.918 624.618,214.751 626.5,213.5C 628.403,213.204 630.07,212.537 631.5,211.5C 634.059,211.802 636.393,211.468 638.5,210.5C 639.167,210.5 639.833,210.5 640.5,210.5C 643.059,210.802 645.393,210.468 647.5,209.5 Z M 677.5,257.5 C 679.17,260.002 681.336,262.002 684,263.5C 685.609,266.407 687.442,269.073 689.5,271.5C 690.314,276.119 690.647,280.786 690.5,285.5C 689.662,285.842 689.328,286.508 689.5,287.5C 686.219,291.32 682.219,292.32 677.5,290.5C 674.712,287.964 671.712,285.631 668.5,283.5C 666.477,278.413 664.477,273.413 662.5,268.5C 662.629,266.784 662.962,265.117 663.5,263.5C 665.326,261.853 666.66,259.853 667.5,257.5C 670.809,256.373 674.143,256.373 677.5,257.5 Z"/></g>
<g><path style="opacity:1" fill="#818181" d="M 206.5,-0.5 C 209.5,-0.5 212.5,-0.5 215.5,-0.5C 214.054,0.940163 212.221,1.60683 210,1.5C 208.615,1.48572 207.449,1.15239 206.5,0.5C 206.5,0.166667 206.5,-0.166667 206.5,-0.5 Z"/></g>
<g><path style="opacity:1" fill="#3f3f3f" d="M 318.5,-0.5 C 329.167,-0.5 339.833,-0.5 350.5,-0.5C 350.5,0.166667 350.5,0.833333 350.5,1.5C 339.621,1.80963 328.954,1.14296 318.5,-0.5 Z"/></g>
<g><path style="opacity:1" fill="#a0a0a0" d="M 350.5,-0.5 C 355.167,-0.5 359.833,-0.5 364.5,-0.5C 364.5,-0.166667 364.5,0.166667 364.5,0.5C 360.03,1.48612 355.363,1.81946 350.5,1.5C 350.5,0.833333 350.5,0.166667 350.5,-0.5 Z"/></g>
<g><path style="opacity:1" fill="#848484" d="M 373.5,0.5 C 375.735,0.205283 377.735,0.538616 379.5,1.5C 378.726,2.14713 377.726,2.48046 376.5,2.5C 374.97,2.36015 373.97,1.69348 373.5,0.5 Z"/></g>
<g><path style="opacity:0.686" fill="#8d8d8d" d="M 205.5,0.5 C 203.966,2.36897 201.966,3.7023 199.5,4.5C 200.802,2.17823 202.802,0.844897 205.5,0.5 Z"/></g>
<g><path style="opacity:0.929" fill="#6d6d6d" d="M 381.5,1.5 C 386.151,1.62681 390.485,2.62681 394.5,4.5C 390.44,4.51535 386.44,4.01535 382.5,3C 381.944,2.61742 381.611,2.11742 381.5,1.5 Z"/></g>
<g><path style="opacity:0.455" fill="#c2c2c2" d="M 199.5,4.5 C 198.167,6.5 196.5,8.16667 194.5,9.5C 194.5,6.16667 196.167,4.5 199.5,4.5 Z"/></g>
<g><path style="opacity:1" fill="#858585" d="M 394.5,4.5 C 399.922,4.64682 404.922,5.98016 409.5,8.5C 404.089,8.35753 399.089,7.02419 394.5,4.5 Z"/></g>
<g><path style="opacity:1" fill="#777777" d="M 410.5,8.5 C 412.553,8.40206 414.22,9.06873 415.5,10.5C 413.219,10.9227 411.552,10.256 410.5,8.5 Z"/></g>
<g><path style="opacity:0.937" fill="#b1b1b1" d="M 416.5,10.5 C 418.415,10.2155 420.081,10.5489 421.5,11.5C 421.44,12.0431 421.107,12.3764 420.5,12.5C 418.974,12.0057 417.641,11.339 416.5,10.5 Z"/></g>
<g><path style="opacity:1" fill="#787878" d="M 194.5,9.5 C 194.408,11.8477 193.408,13.5144 191.5,14.5C 191.75,12.326 192.75,10.6594 194.5,9.5 Z"/></g>
<g><path style="opacity:0.875" fill="#878787" d="M 422.5,11.5 C 427.733,12.7187 432.733,14.3853 437.5,16.5C 432.853,16.2137 428.353,15.2137 424,13.5C 422.97,13.1639 422.47,12.4972 422.5,11.5 Z"/></g>
<g><path style="opacity:1" fill="#989898" d="M 437.5,16.5 C 441.902,16.3082 445.902,17.3082 449.5,19.5C 445.098,19.6918 441.098,18.6918 437.5,16.5 Z"/></g>
<g><path style="opacity:1" fill="#747474" d="M 449.5,19.5 C 451.553,19.4021 453.22,20.0687 454.5,21.5C 452.219,21.9227 450.552,21.256 449.5,19.5 Z"/></g>
<g><path style="opacity:0.561" fill="#999999" d="M 455.5,21.5 C 459.647,21.1257 463.314,22.1257 466.5,24.5C 466.44,25.0431 466.107,25.3764 465.5,25.5C 461.987,24.3355 458.654,23.0022 455.5,21.5 Z"/></g>
<g><path style="opacity:0.741" fill="#848484" d="M 467.5,24.5 C 470.785,24.9281 473.785,25.9281 476.5,27.5C 472.841,27.8506 469.841,26.8506 467.5,24.5 Z"/></g>
<g><path style="opacity:0.141" fill="#9c9c9c" d="M 190.5,22.5 C 191.341,24.3792 191.675,26.3792 191.5,28.5C 190.833,30.1667 190.167,31.8333 189.5,33.5C 189.185,29.6286 189.518,25.9619 190.5,22.5 Z"/></g>
<g><path style="opacity:1" fill="#878787" d="M 476.5,27.5 C 482.917,27.9766 488.917,29.6433 494.5,32.5C 488.083,32.0234 482.083,30.3567 476.5,27.5 Z"/></g>
<g><path style="opacity:0.89" fill="#868686" d="M 497.5,33.5 C 503.917,33.9766 509.917,35.6433 515.5,38.5C 509.083,38.0234 503.083,36.3567 497.5,33.5 Z"/></g>
<g><path style="opacity:0.992" fill="#9d9d9d" d="M 518.5,39.5 C 520.415,39.2155 522.081,39.5489 523.5,40.5C 523.44,41.0431 523.107,41.3764 522.5,41.5C 520.974,41.0057 519.641,40.339 518.5,39.5 Z"/></g>
<g><path style="opacity:0.141" fill="#2e2e2e" d="M 191.5,28.5 C 192.138,37.8955 191.471,46.8955 189.5,55.5C 189.5,48.1667 189.5,40.8333 189.5,33.5C 190.167,31.8333 190.833,30.1667 191.5,28.5 Z"/></g>
<g><path style="opacity:1" fill="#747474" d="M 524.5,40.5 C 528.419,41.3873 532.085,42.7207 535.5,44.5C 531.079,44.6988 527.413,43.3655 524.5,40.5 Z"/></g>
<g><path style="opacity:1" fill="#8e8e8e" d="M 536.5,44.5 C 538.415,44.2155 540.081,44.5489 541.5,45.5C 541.44,46.0431 541.107,46.3764 540.5,46.5C 538.974,46.0057 537.641,45.339 536.5,44.5 Z"/></g>
<g><path style="opacity:0.863" fill="#7f7f7f" d="M 542.5,45.5 C 546.419,46.3873 550.085,47.7207 553.5,49.5C 549.079,49.6988 545.413,48.3655 542.5,45.5 Z"/></g>
<g><path style="opacity:0.298" fill="#9c9c9c" d="M 557.5,50.5 C 563.917,50.9766 569.917,52.6433 575.5,55.5C 569.083,55.0234 563.083,53.3567 557.5,50.5 Z"/></g>
<g><path style="opacity:0.631" fill="#a6a6a6" d="M 578.5,56.5 C 581.829,56.2153 584.829,56.8819 587.5,58.5C 584.294,59.1057 581.294,58.439 578.5,56.5 Z"/></g>
<g><path style="opacity:0.882" fill="#9a9a9a" d="M 587.5,58.5 C 589.786,58.595 591.786,59.2616 593.5,60.5C 590.99,60.9465 588.99,60.2798 587.5,58.5 Z"/></g>
<g><path style="opacity:0.922" fill="#828282" d="M 593.5,60.5 C 595.216,60.6287 596.883,60.962 598.5,61.5C 596.545,62.9302 594.879,62.5969 593.5,60.5 Z"/></g>
<g><path style="opacity:0.961" fill="#9d9d9d" d="M 599.5,61.5 C 601.403,61.7959 603.07,62.4625 604.5,63.5C 604.44,64.0431 604.107,64.3764 603.5,64.5C 601.517,64.1852 600.184,63.1852 599.5,61.5 Z"/></g>
<g><path style="opacity:1" fill="#989898" d="M 605.5,63.5 C 607.553,63.4021 609.22,64.0687 610.5,65.5C 608.219,65.9227 606.552,65.256 605.5,63.5 Z"/></g>
<g><path style="opacity:1" fill="#7f7f7f" d="M 611.5,65.5 C 613.553,65.4021 615.22,66.0687 616.5,67.5C 614.219,67.9227 612.552,67.256 611.5,65.5 Z"/></g>
<g><path style="opacity:1" fill="#9d9d9d" d="M 617.5,67.5 C 619.415,67.2155 621.081,67.5489 622.5,68.5C 622.44,69.0431 622.107,69.3764 621.5,69.5C 619.974,69.0057 618.641,68.339 617.5,67.5 Z"/></g>
<g><path style="opacity:0.514" fill="#969696" d="M 623.5,68.5 C 627.419,69.3873 631.085,70.7207 634.5,72.5C 630.079,72.6988 626.413,71.3655 623.5,68.5 Z"/></g>
<g><path style="opacity:0.953" fill="#7e7e7e" d="M 635.5,72.5 C 637.216,72.6287 638.883,72.962 640.5,73.5C 638.545,74.9302 636.879,74.5969 635.5,72.5 Z"/></g>
<g><path style="opacity:1" fill="#a8a8a8" d="M 641.5,73.5 C 643.553,73.4021 645.22,74.0687 646.5,75.5C 646.44,76.0431 646.107,76.3764 645.5,76.5C 643.517,76.1852 642.184,75.1852 641.5,73.5 Z"/></g>
<g><path style="opacity:0.584" fill="#a9a9a9" d="M 647.5,75.5 C 649.553,75.4021 651.22,76.0687 652.5,77.5C 650.302,77.8799 648.635,77.2132 647.5,75.5 Z"/></g>
<g><path style="opacity:0.843" fill="#9c9c9c" d="M 653.5,77.5 C 655.553,77.4021 657.22,78.0687 658.5,79.5C 656.302,79.8799 654.635,79.2132 653.5,77.5 Z"/></g>
<g><path style="opacity:0.424" fill="#919191" d="M 659.5,79.5 C 665.543,80.1841 671.21,81.8508 676.5,84.5C 670.328,84.2111 664.662,82.5444 659.5,79.5 Z"/></g>
<g><path style="opacity:0.576" fill="#9c9c9c" d="M 676.5,84.5 C 679.829,84.2153 682.829,84.8819 685.5,86.5C 682.294,87.1057 679.294,86.439 676.5,84.5 Z"/></g>
<g><path style="opacity:1" fill="#252525" d="M 189.5,87.5 C 191.481,100.124 192.148,113.124 191.5,126.5C 190.833,124.5 190.167,122.5 189.5,120.5C 189.5,109.5 189.5,98.5 189.5,87.5 Z"/></g>
<g><path style="opacity:1" fill="#6e6e6e" d="M 685.5,86.5 C 689.419,87.3873 693.085,88.7207 696.5,90.5C 692.079,90.6988 688.413,89.3655 685.5,86.5 Z"/></g>
<g><path style="opacity:1" fill="#939393" d="M 697.5,90.5 C 699.415,90.2155 701.081,90.5489 702.5,91.5C 702.44,92.0431 702.107,92.3764 701.5,92.5C 699.974,92.0057 698.641,91.339 697.5,90.5 Z"/></g>
<g><path style="opacity:1" fill="#818181" d="M 703.5,91.5 C 707.419,92.3873 711.085,93.7207 714.5,95.5C 710.079,95.6988 706.413,94.3655 703.5,91.5 Z"/></g>
<g><path style="opacity:0.431" fill="#8f8f8f" d="M 718.5,96.5 C 721.553,96.1107 724.22,96.7773 726.5,98.5C 726.44,99.0431 726.107,99.3764 725.5,99.5C 722.873,98.9422 720.54,97.9422 718.5,96.5 Z"/></g>
<g><path style="opacity:0.639" fill="#989898" d="M 727.5,98.5 C 729.553,98.4021 731.22,99.0687 732.5,100.5C 730.302,100.88 728.635,100.213 727.5,98.5 Z"/></g>
<g><path style="opacity:0.149" fill="#a4a4a4" d="M 739.5,102.5 C 741.415,102.216 743.081,102.549 744.5,103.5C 744.44,104.043 744.107,104.376 743.5,104.5C 741.974,104.006 740.641,103.339 739.5,102.5 Z"/></g>
<g><path style="opacity:1" fill="#979797" d="M 745.5,103.5 C 748.67,104.265 751.67,105.265 754.5,106.5C 751.934,106.656 749.434,106.322 747,105.5C 745.97,105.164 745.47,104.497 745.5,103.5 Z"/></g>
<g><path style="opacity:1" fill="#818181" d="M 757.5,107.5 C 764.546,108.518 771.213,110.518 777.5,113.5C 770.333,112.886 763.666,110.886 757.5,107.5 Z"/></g>
<g><path style="opacity:1" fill="#8b8b8b" d="M 777.5,113.5 C 779.415,113.216 781.081,113.549 782.5,114.5C 782.44,115.043 782.107,115.376 781.5,115.5C 779.974,115.006 778.641,114.339 777.5,113.5 Z"/></g>
<g><path style="opacity:0.647" fill="#8e8e8e" d="M 783.5,114.5 C 787.419,115.387 791.085,116.721 794.5,118.5C 790.079,118.699 786.413,117.365 783.5,114.5 Z"/></g>
<g><path style="opacity:0.976" fill="#a0a0a0" d="M 795.5,118.5 C 797.216,118.629 798.883,118.962 800.5,119.5C 798.662,120.678 796.995,120.345 795.5,118.5 Z"/></g>
<g><path style="opacity:1" fill="#7c7c7c" d="M 801.5,119.5 C 803.403,119.796 805.07,120.463 806.5,121.5C 804.176,122.833 802.509,122.166 801.5,119.5 Z"/></g>
<g><path style="opacity:0.757" fill="#818181" d="M 807.5,121.5 C 810.397,122.129 813.064,123.129 815.5,124.5C 812.083,124.977 809.416,123.977 807.5,121.5 Z"/></g>
<g><path style="opacity:1" fill="#a7a7a7" d="M 816.5,124.5 C 819.228,124.171 821.562,124.837 823.5,126.5C 823.44,127.043 823.107,127.376 822.5,127.5C 820.22,126.864 818.22,125.864 816.5,124.5 Z"/></g>
<g><path style="opacity:0.82" fill="#9c9c9c" d="M 824.5,126.5 C 827.443,126.98 830.11,127.98 832.5,129.5C 829.083,129.977 826.416,128.977 824.5,126.5 Z"/></g>
<g><path style="opacity:1" fill="#999999" d="M 189.5,120.5 C 190.167,122.5 190.833,124.5 191.5,126.5C 191.806,129.385 191.473,132.052 190.5,134.5C 189.514,130.03 189.181,125.363 189.5,120.5 Z"/></g>
<g><path style="opacity:1" fill="#787878" d="M 190.5,136.5 C 191.117,136.611 191.617,136.944 192,137.5C 193.154,141.447 193.987,145.447 194.5,149.5C 191.987,145.622 190.654,141.289 190.5,136.5 Z"/></g>
<g><path style="opacity:0.851" fill="#b0b0b0" d="M 194.5,149.5 C 197.319,155.134 200.652,160.467 204.5,165.5C 198.672,161.868 195.339,156.534 194.5,149.5 Z"/></g>
<g><path style="opacity:1" fill="#747474" d="M 530.5,168.5 C 527.713,169.477 524.713,169.81 521.5,169.5C 522.514,168.235 524.014,167.569 526,167.5C 527.707,167.508 529.207,167.842 530.5,168.5 Z"/></g>
<g><path style="opacity:0.039" fill="#9c9c9c" d="M 206.5,167.5 C 208.167,168.5 209.5,169.833 210.5,171.5C 208.167,171.167 206.833,169.833 206.5,167.5 Z"/></g>
<g><path style="opacity:0.4" fill="#989898" d="M 788.5,171.5 C 784.762,170.387 781.096,169.387 777.5,168.5C 780.427,167.768 783.427,167.935 786.5,169C 787.381,169.708 788.047,170.542 788.5,171.5 Z"/></g>
<g><path style="opacity:0.063" fill="#aeaeae" d="M 520.5,169.5 C 515.94,170.313 511.94,172.313 508.5,175.5C 510.266,171.257 513.599,168.923 518.5,168.5C 519.416,168.543 520.083,168.876 520.5,169.5 Z"/></g>
<g><path style="opacity:0.812" fill="#c3c3c3" d="M 788.5,171.5 C 791.167,172.167 792.833,173.833 793.5,176.5C 791.5,175.167 789.833,173.5 788.5,171.5 Z"/></g>
<g><path style="opacity:0.553" fill="#a6a6a6" d="M 212.5,173.5 C 214.167,174.5 215.5,175.833 216.5,177.5C 214.167,177.167 212.833,175.833 212.5,173.5 Z"/></g>
<g><path style="opacity:0.624" fill="#bababa" d="M 508.5,175.5 C 508.573,177.027 507.906,178.027 506.5,178.5C 506.427,176.973 507.094,175.973 508.5,175.5 Z"/></g>
<g><path style="opacity:0.016" fill="#b3b3b3" d="M 216.5,177.5 C 218.897,179.046 220.897,181.046 222.5,183.5C 219.522,182.522 217.522,180.522 216.5,177.5 Z"/></g>
<g><path style="opacity:1" fill="#828282" d="M 793.5,176.5 C 796.052,178.8 796.718,181.467 795.5,184.5C 794.232,182.095 793.565,179.428 793.5,176.5 Z"/></g>
<g><path style="opacity:0.663" fill="#8c8c8c" d="M 506.5,178.5 C 506.435,181.428 505.768,184.095 504.5,186.5C 503.876,186.083 503.543,185.416 503.5,184.5C 504.512,182.437 505.512,180.437 506.5,178.5 Z"/></g>
<g><path style="opacity:0.561" fill="#c0c0c0" d="M 222.5,183.5 C 227.105,186.436 231.105,190.102 234.5,194.5C 233.078,194.291 231.745,193.791 230.5,193C 227.552,190.037 224.885,186.87 222.5,183.5 Z"/></g>
<g><path style="opacity:1" fill="#cacaca" d="M 655.5,188.5 C 652.167,189.833 648.833,189.833 645.5,188.5C 648.833,187.167 652.167,187.167 655.5,188.5 Z"/></g>
<g><path style="opacity:1" fill="#979797" d="M 642.5,188.5 C 641.462,190.519 640.128,190.853 638.5,189.5C 639.568,188.566 640.901,188.232 642.5,188.5 Z"/></g>
<g><path style="opacity:1" fill="#050505" d="M 642.5,188.5 C 643.5,188.5 644.5,188.5 645.5,188.5C 648.833,189.833 652.167,189.833 655.5,188.5C 656.833,188.5 658.167,188.5 659.5,188.5C 659.97,189.693 660.97,190.36 662.5,190.5C 663.726,190.48 664.726,190.147 665.5,189.5C 665.833,189.5 666.167,189.5 666.5,189.5C 667.053,191.552 668.053,191.885 669.5,190.5C 669.833,190.5 670.167,190.5 670.5,190.5C 672.919,192.862 675.919,193.862 679.5,193.5C 679.833,193.5 680.167,193.5 680.5,193.5C 681.531,194.249 682.698,194.915 684,195.5C 684.399,195.272 684.565,194.938 684.5,194.5C 684.833,194.5 685.167,194.5 685.5,194.5C 687.249,197.375 689.915,198.708 693.5,198.5C 694.492,198.328 695.158,198.662 695.5,199.5C 698.008,201.924 701.008,203.59 704.5,204.5C 709.476,208.47 714.476,212.47 719.5,216.5C 721.167,218.833 723.167,220.833 725.5,222.5C 727.111,226.051 729.444,229.051 732.5,231.5C 733.383,234.704 735.05,237.371 737.5,239.5C 738.733,244.293 740.733,248.626 743.5,252.5C 743.5,252.833 743.5,253.167 743.5,253.5C 744.552,259.646 745.552,265.813 746.5,272C 746.608,273.681 747.275,274.848 748.5,275.5C 748.5,282.833 748.5,290.167 748.5,297.5C 747.307,297.97 746.64,298.97 746.5,300.5C 746.52,301.726 746.853,302.726 747.5,303.5C 747.5,303.833 747.5,304.167 747.5,304.5C 745.025,307.251 744.025,310.584 744.5,314.5C 744.405,316.786 743.738,318.786 742.5,320.5C 740.393,323.057 739.059,326.057 738.5,329.5C 735.759,331.975 733.759,334.975 732.5,338.5C 723.795,349.539 713.795,359.205 702.5,367.5C 699.669,368.079 697.336,369.412 695.5,371.5C 695.158,372.338 694.492,372.672 693.5,372.5C 688.868,373.596 684.534,375.263 680.5,377.5C 680.167,377.5 679.833,377.5 679.5,377.5C 675.353,377.126 671.686,378.126 668.5,380.5C 668.167,380.5 667.833,380.5 667.5,380.5C 666.551,379.848 665.385,379.514 664,379.5C 661.992,379.307 660.492,379.974 659.5,381.5C 659.167,381.5 658.833,381.5 658.5,381.5C 654.5,380.167 650.5,380.167 646.5,381.5C 645.833,381.5 645.167,381.5 644.5,381.5C 642.345,379.466 640.012,379.133 637.5,380.5C 637.167,380.5 636.833,380.5 636.5,380.5C 633.191,378.63 629.525,377.63 625.5,377.5C 625.167,377.5 624.833,377.5 624.5,377.5C 619.88,374.695 614.88,372.695 609.5,371.5C 607.664,369.412 605.331,368.079 602.5,367.5C 600.853,365.674 598.853,364.34 596.5,363.5C 593.585,360.041 590.252,357.041 586.5,354.5C 580.424,347.765 574.757,340.765 569.5,333.5C 568.662,333.158 568.328,332.492 568.5,331.5C 567.341,327.849 565.674,324.515 563.5,321.5C 561.87,314.949 559.87,308.616 557.5,302.5C 556.908,292.844 556.575,283.178 556.5,273.5C 556.448,271.097 556.781,268.764 557.5,266.5C 560.078,260.767 562.078,254.767 563.5,248.5C 565.625,245.912 566.958,242.912 567.5,239.5C 568.906,239.027 569.573,238.027 569.5,236.5C 571.664,234.178 573.331,231.511 574.5,228.5C 576.633,226.909 578.299,224.909 579.5,222.5C 579.5,221.833 579.833,221.5 580.5,221.5C 588.997,212.992 598.33,205.659 608.5,199.5C 610.027,199.573 611.027,198.906 611.5,197.5C 611.833,197.5 612.167,197.5 612.5,197.5C 616.537,196.935 620.203,195.601 623.5,193.5C 627.851,192.83 632.184,191.996 636.5,191C 637.056,190.617 637.389,190.117 637.5,189.5C 637.833,189.5 638.167,189.5 638.5,189.5C 640.128,190.853 641.462,190.519 642.5,188.5 Z M 647.5,209.5 C 651.167,209.5 654.833,209.5 658.5,209.5C 661.997,210.402 665.663,211.069 669.5,211.5C 669.833,211.5 670.167,211.5 670.5,211.5C 676.274,213.222 681.941,215.222 687.5,217.5C 691.148,220.66 695.148,223.327 699.5,225.5C 703.167,229.833 707.167,233.833 711.5,237.5C 713.062,241.392 715.395,244.725 718.5,247.5C 718.229,249.38 718.896,250.713 720.5,251.5C 720.5,251.833 720.5,252.167 720.5,252.5C 721.596,255.032 722.929,257.365 724.5,259.5C 724.5,259.833 724.5,260.167 724.5,260.5C 725.261,266.091 726.595,271.424 728.5,276.5C 728.5,282.5 728.5,288.5 728.5,294.5C 726.563,299.582 725.23,304.915 724.5,310.5C 721.727,314.385 719.727,318.718 718.5,323.5C 717.662,323.842 717.328,324.508 717.5,325.5C 710.868,333.799 703.535,341.466 695.5,348.5C 692.966,348.259 691.3,349.259 690.5,351.5C 688.847,351.66 687.514,352.326 686.5,353.5C 681.117,354.734 676.117,356.734 671.5,359.5C 671.167,359.5 670.833,359.5 670.5,359.5C 665.924,359.438 661.591,360.105 657.5,361.5C 654.167,361.5 650.833,361.5 647.5,361.5C 646.081,360.549 644.415,360.216 642.5,360.5C 641.833,360.5 641.167,360.5 640.5,360.5C 638.393,359.532 636.059,359.198 633.5,359.5C 618.22,353.858 604.887,345.191 593.5,333.5C 593.262,331.596 592.262,330.262 590.5,329.5C 590.262,327.596 589.262,326.262 587.5,325.5C 586.029,321.224 584.029,317.224 581.5,313.5C 580.616,308.946 579.283,304.613 577.5,300.5C 576.167,290.5 576.167,280.5 577.5,270.5C 579.44,266.085 580.773,261.418 581.5,256.5C 582.338,256.158 582.672,255.492 582.5,254.5C 587.091,246.318 592.424,238.651 598.5,231.5C 599.167,231.5 599.5,231.167 599.5,230.5C 602.747,229.588 605.08,227.588 606.5,224.5C 610.434,222.88 613.767,220.546 616.5,217.5C 617.873,217.657 619.207,217.49 620.5,217C 622.618,215.918 624.618,214.751 626.5,213.5C 628.403,213.204 630.07,212.537 631.5,211.5C 634.059,211.802 636.393,211.468 638.5,210.5C 639.167,210.5 639.833,210.5 640.5,210.5C 643.059,210.802 645.393,210.468 647.5,209.5 Z M 677.5,257.5 C 679.17,260.002 681.336,262.002 684,263.5C 685.609,266.407 687.442,269.073 689.5,271.5C 690.314,276.119 690.647,280.786 690.5,285.5C 689.662,285.842 689.328,286.508 689.5,287.5C 686.219,291.32 682.219,292.32 677.5,290.5C 674.712,287.964 671.712,285.631 668.5,283.5C 666.477,278.413 664.477,273.413 662.5,268.5C 662.629,266.784 662.962,265.117 663.5,263.5C 665.326,261.853 666.66,259.853 667.5,257.5C 670.809,256.373 674.143,256.373 677.5,257.5 Z"/></g>
<g><path style="opacity:1" fill="#969696" d="M 659.5,188.5 C 661.735,188.205 663.735,188.539 665.5,189.5C 664.726,190.147 663.726,190.48 662.5,190.5C 660.97,190.36 659.97,189.693 659.5,188.5 Z"/></g>
<g><path style="opacity:1" fill="#818181" d="M 795.5,185.5 C 797.769,187.799 798.102,190.466 796.5,193.5C 795.527,191.052 795.194,188.385 795.5,185.5 Z"/></g>
<g><path style="opacity:0.922" fill="#7b7b7b" d="M 666.5,189.5 C 667.791,189.263 668.791,189.596 669.5,190.5C 668.053,191.885 667.053,191.552 666.5,189.5 Z"/></g>
<g><path style="opacity:0.984" fill="#747474" d="M 670.5,190.5 C 673.854,190.747 676.854,191.747 679.5,193.5C 675.919,193.862 672.919,192.862 670.5,190.5 Z"/></g>
<g><path style="opacity:0.976" fill="#7f7f7f" d="M 637.5,189.5 C 637.389,190.117 637.056,190.617 636.5,191C 632.184,191.996 627.851,192.83 623.5,193.5C 627.805,191.254 632.471,189.92 637.5,189.5 Z"/></g>
<g><path style="opacity:0.063" fill="#b7b7b7" d="M 680.5,193.5 C 682.099,193.232 683.432,193.566 684.5,194.5C 684.565,194.938 684.399,195.272 684,195.5C 682.698,194.915 681.531,194.249 680.5,193.5 Z"/></g>
<g><path style="opacity:1" fill="#747474" d="M 504.5,187.5 C 504.813,191.042 504.479,194.375 503.5,197.5C 502.84,196.036 502.507,194.369 502.5,192.5C 502.556,190.36 503.223,188.694 504.5,187.5 Z"/></g>
<g><path style="opacity:0.72" fill="#a1a1a1" d="M 623.5,193.5 C 620.203,195.601 616.537,196.935 612.5,197.5C 615.491,194.611 619.158,193.278 623.5,193.5 Z"/></g>
<g><path style="opacity:0.063" fill="#969696" d="M 235.5,195.5 C 237.5,196.833 239.167,198.5 240.5,200.5C 237.833,199.833 236.167,198.167 235.5,195.5 Z"/></g>
<g><path style="opacity:1" fill="#8b8b8b" d="M 685.5,194.5 C 688.721,194.896 691.388,196.229 693.5,198.5C 689.915,198.708 687.249,197.375 685.5,194.5 Z"/></g>
<g><path style="opacity:0.827" fill="#cecece" d="M 611.5,197.5 C 611.027,198.906 610.027,199.573 608.5,199.5C 608.973,198.094 609.973,197.427 611.5,197.5 Z"/></g>
<g><path style="opacity:0.757" fill="#9f9f9f" d="M 695.5,199.5 C 699.272,199.884 702.272,201.55 704.5,204.5C 701.008,203.59 698.008,201.924 695.5,199.5 Z"/></g>
<g><path style="opacity:0.016" fill="#bbbbbb" d="M 240.5,200.5 C 242.5,201.833 244.167,203.5 245.5,205.5C 242.833,204.833 241.167,203.167 240.5,200.5 Z"/></g>
<g><path style="opacity:0.431" fill="#a9a9a9" d="M 608.5,199.5 C 598.33,205.659 588.997,212.992 580.5,221.5C 580.351,220.448 580.517,219.448 581,218.5C 585.7,214.225 590.533,210.058 595.5,206C 599.619,203.274 603.952,201.107 608.5,199.5 Z"/></g>
<g><path style="opacity:0.031" fill="#bbbbbb" d="M 245.5,205.5 C 250.414,208.742 254.747,212.742 258.5,217.5C 255.397,215.577 252.397,213.41 249.5,211C 247.561,209.568 246.228,207.735 245.5,205.5 Z"/></g>
<g><path style="opacity:0.78" fill="#b7b7b7" d="M 704.5,204.5 C 708.441,206.14 712.108,208.306 715.5,211C 717.464,212.451 718.797,214.284 719.5,216.5C 714.476,212.47 709.476,208.47 704.5,204.5 Z"/></g>
<g><path style="opacity:0.259" fill="#868686" d="M 647.5,209.5 C 645.393,210.468 643.059,210.802 640.5,210.5C 641.312,209.007 642.645,208.34 644.5,208.5C 645.726,208.52 646.726,208.853 647.5,209.5 Z"/></g>
<g><path style="opacity:0.259" fill="#6f6f6f" d="M 669.5,211.5 C 665.663,211.069 661.997,210.402 658.5,209.5C 660.966,208.366 663.633,208.199 666.5,209C 668.119,209.236 669.119,210.069 669.5,211.5 Z"/></g>
<g><path style="opacity:0.11" fill="#7b7b7b" d="M 638.5,210.5 C 636.393,211.468 634.059,211.802 631.5,211.5C 633.713,209.688 636.047,209.355 638.5,210.5 Z"/></g>
<g><path style="opacity:1" fill="#737373" d="M 670.5,211.5 C 670.917,210.876 671.584,210.543 672.5,210.5C 678.163,211.499 683.163,213.833 687.5,217.5C 681.941,215.222 676.274,213.222 670.5,211.5 Z"/></g>
<g><path style="opacity:0.72" fill="#969696" d="M 626.5,213.5 C 624.618,214.751 622.618,215.918 620.5,217C 619.207,217.49 617.873,217.657 616.5,217.5C 619.34,215.085 622.673,213.752 626.5,213.5 Z"/></g>
<g><path style="opacity:1" fill="#727272" d="M 796.5,195.5 C 798.04,201.251 798.706,207.251 798.5,213.5C 798.499,218.013 798.166,222.347 797.5,226.5C 796.506,216.347 796.172,206.014 796.5,195.5 Z"/></g>
<g><path style="opacity:0.055" fill="#c8c8c8" d="M 719.5,216.5 C 722.5,217.5 724.5,219.5 725.5,222.5C 723.167,220.833 721.167,218.833 719.5,216.5 Z"/></g>
<g><path style="opacity:0.471" fill="#b2b2b2" d="M 616.5,217.5 C 613.767,220.546 610.434,222.88 606.5,224.5C 609.13,221.183 612.463,218.85 616.5,217.5 Z"/></g>
<g><path style="opacity:0.608" fill="#bababa" d="M 579.5,222.5 C 578.299,224.909 576.633,226.909 574.5,228.5C 575.247,225.638 576.914,223.638 579.5,222.5 Z"/></g>
<g><path style="opacity:0.82" fill="#acacac" d="M 687.5,217.5 C 692.285,218.945 696.285,221.612 699.5,225.5C 695.148,223.327 691.148,220.66 687.5,217.5 Z"/></g>
<g><path style="opacity:0.851" fill="#9d9d9d" d="M 725.5,222.5 C 728.973,224.637 731.306,227.637 732.5,231.5C 729.444,229.051 727.111,226.051 725.5,222.5 Z"/></g>
<g><path style="opacity:0.329" fill="#cdcdcd" d="M 606.5,224.5 C 605.08,227.588 602.747,229.588 599.5,230.5C 601.239,227.757 603.573,225.757 606.5,224.5 Z"/></g>
<g><path style="opacity:0.898" fill="#c0c0c0" d="M 699.5,225.5 C 704.5,228.5 708.5,232.5 711.5,237.5C 707.167,233.833 703.167,229.833 699.5,225.5 Z"/></g>
<g><path style="opacity:1" fill="#020202" d="M 646.5,230.5 C 649.5,230.5 652.5,230.5 655.5,230.5C 655.611,231.117 655.944,231.617 656.5,232C 660.145,232.719 663.812,233.219 667.5,233.5C 667.833,233.5 668.167,233.5 668.5,233.5C 672.23,235.862 676.23,237.862 680.5,239.5C 682.55,241.547 684.883,243.214 687.5,244.5C 688.833,246.5 690.5,248.167 692.5,249.5C 692.833,251.833 694.167,253.167 696.5,253.5C 696.5,253.833 696.5,254.167 696.5,254.5C 696.738,256.404 697.738,257.738 699.5,258.5C 699.707,261.241 700.707,263.574 702.5,265.5C 704.652,271.802 705.652,278.302 705.5,285C 705.514,291.257 704.847,297.424 703.5,303.5C 703.737,304.791 703.404,305.791 702.5,306.5C 699.742,309.678 697.742,313.345 696.5,317.5C 692.167,322.5 687.5,327.167 682.5,331.5C 680.973,331.427 679.973,332.094 679.5,333.5C 676.246,333.794 673.579,335.127 671.5,337.5C 670.292,338.234 668.959,338.567 667.5,338.5C 665.473,338.338 663.473,338.505 661.5,339C 660.944,339.383 660.611,339.883 660.5,340.5C 660.167,340.5 659.833,340.5 659.5,340.5C 649.993,340.912 640.66,339.912 631.5,337.5C 631.167,337.5 630.833,337.5 630.5,337.5C 628.97,335.654 626.97,334.654 624.5,334.5C 623.738,332.738 622.404,331.738 620.5,331.5C 618.878,329.359 616.878,327.692 614.5,326.5C 607.146,318.156 601.48,308.823 597.5,298.5C 596.186,290.068 596.186,281.735 597.5,273.5C 599.73,268.69 601.73,263.69 603.5,258.5C 605.488,255.872 607.488,253.205 609.5,250.5C 614.179,245.822 619.179,241.489 624.5,237.5C 627.912,236.925 630.912,235.592 633.5,233.5C 637.49,233.001 641.49,232.501 645.5,232C 646.056,231.617 646.389,231.117 646.5,230.5 Z M 677.5,257.5 C 679.17,260.002 681.336,262.002 684,263.5C 685.609,266.407 687.442,269.073 689.5,271.5C 690.314,276.119 690.647,280.786 690.5,285.5C 689.662,285.842 689.328,286.508 689.5,287.5C 686.219,291.32 682.219,292.32 677.5,290.5C 674.712,287.964 671.712,285.631 668.5,283.5C 666.477,278.413 664.477,273.413 662.5,268.5C 662.629,266.784 662.962,265.117 663.5,263.5C 665.326,261.853 666.66,259.853 667.5,257.5C 670.809,256.373 674.143,256.373 677.5,257.5 Z"/></g>
<g><path style="opacity:0.922" fill="#6a6a6a" d="M 646.5,230.5 C 646.389,231.117 646.056,231.617 645.5,232C 641.49,232.501 637.49,233.001 633.5,233.5C 637.474,231.425 641.808,230.425 646.5,230.5 Z"/></g>
<g><path style="opacity:1" fill="#757575" d="M 655.5,230.5 C 659.924,230.272 663.924,231.272 667.5,233.5C 663.812,233.219 660.145,232.719 656.5,232C 655.944,231.617 655.611,231.117 655.5,230.5 Z"/></g>
<g><path style="opacity:0.929" fill="#a9a9a9" d="M 574.5,228.5 C 573.331,231.511 571.664,234.178 569.5,236.5C 570.151,233.197 571.818,230.53 574.5,228.5 Z"/></g>
<g><path style="opacity:0.843" fill="#b3b3b3" d="M 258.5,217.5 C 270.497,228.663 282.664,239.663 295,250.5C 295.74,251.749 295.573,252.749 294.5,253.5C 286.031,244.57 277.031,236.07 267.5,228C 263.893,224.902 260.893,221.402 258.5,217.5 Z"/></g>
<g><path style="opacity:0.337" fill="#b2b2b2" d="M 598.5,231.5 C 592.424,238.651 587.091,246.318 582.5,254.5C 585.638,245.195 590.972,237.528 598.5,231.5 Z"/></g>
<g><path style="opacity:0.592" fill="#9d9d9d" d="M 633.5,233.5 C 630.912,235.592 627.912,236.925 624.5,237.5C 626.712,234.642 629.712,233.309 633.5,233.5 Z"/></g>
<g><path style="opacity:0.29" fill="#999999" d="M 668.5,233.5 C 673.299,233.899 677.299,235.899 680.5,239.5C 676.23,237.862 672.23,235.862 668.5,233.5 Z"/></g>
<g><path style="opacity:0.165" fill="#b1b1b1" d="M 732.5,231.5 C 735.682,233.193 737.348,235.859 737.5,239.5C 735.05,237.371 733.383,234.704 732.5,231.5 Z"/></g>
<g><path style="opacity:0.686" fill="#b7b7b7" d="M 569.5,236.5 C 569.573,238.027 568.906,239.027 567.5,239.5C 567.427,237.973 568.094,236.973 569.5,236.5 Z"/></g>
<g><path style="opacity:0.376" fill="#9e9e9e" d="M 680.5,239.5 C 683.947,239.615 686.28,241.281 687.5,244.5C 684.883,243.214 682.55,241.547 680.5,239.5 Z"/></g>
<g><path style="opacity:0.718" fill="#bdbdbd" d="M 711.5,237.5 C 714.815,240.125 717.149,243.458 718.5,247.5C 715.395,244.725 713.062,241.392 711.5,237.5 Z"/></g>
<g><path style="opacity:0.576" fill="#b1b1b1" d="M 737.5,239.5 C 739.451,241.48 740.951,243.813 742,246.5C 742.505,248.518 743.005,250.518 743.5,252.5C 740.733,248.626 738.733,244.293 737.5,239.5 Z"/></g>
<g><path style="opacity:0.243" fill="#adadad" d="M 567.5,239.5 C 566.958,242.912 565.625,245.912 563.5,248.5C 563.502,244.835 564.835,241.835 567.5,239.5 Z"/></g>
<g><path style="opacity:0.969" fill="#b1b1b1" d="M 624.5,237.5 C 619.179,241.489 614.179,245.822 609.5,250.5C 609.297,248.61 609.963,247.11 611.5,246C 614.128,244.374 616.461,242.374 618.5,240C 620.407,238.878 622.407,238.045 624.5,237.5 Z"/></g>
<g><path style="opacity:0.251" fill="#cfcfcf" d="M 687.5,244.5 C 690.167,245.167 691.833,246.833 692.5,249.5C 690.5,248.167 688.833,246.5 687.5,244.5 Z"/></g>
<g><path style="opacity:0.392" fill="#989898" d="M 718.5,247.5 C 719.837,248.315 720.837,249.482 721.5,251C 721.272,251.399 720.938,251.565 720.5,251.5C 718.896,250.713 718.229,249.38 718.5,247.5 Z"/></g>
<g><path style="opacity:0.008" fill="#a1a1a1" d="M 692.5,249.5 C 694.773,249.957 696.106,251.29 696.5,253.5C 694.167,253.167 692.833,251.833 692.5,249.5 Z"/></g>
<g><path style="opacity:0.473" fill="#bebebe" d="M 609.5,250.5 C 607.488,253.205 605.488,255.872 603.5,258.5C 604.063,254.689 606.063,252.023 609.5,250.5 Z"/></g>
<g><path style="opacity:0.765" fill="#767676" d="M 720.5,252.5 C 721.496,252.414 722.329,252.748 723,253.5C 723.813,255.436 724.313,257.436 724.5,259.5C 722.929,257.365 721.596,255.032 720.5,252.5 Z"/></g>
<g><path style="opacity:1" fill="#828282" d="M 294.5,254.5 C 295.757,255.623 295.424,256.289 293.5,256.5C 293.328,255.508 293.662,254.842 294.5,254.5 Z"/></g>
<g><path style="opacity:0.298" fill="#969696" d="M 677.5,257.5 C 674.143,256.373 670.809,256.373 667.5,257.5C 670.783,253.695 674.116,253.695 677.5,257.5 Z"/></g>
<g><path style="opacity:0.961" fill="#b1b1b1" d="M 696.5,254.5 C 698.262,255.262 699.262,256.596 699.5,258.5C 697.738,257.738 696.738,256.404 696.5,254.5 Z"/></g>
<g><path style="opacity:0.361" fill="#b2b2b2" d="M 293.5,257.5 C 293.938,257.435 294.272,257.601 294.5,258C 293.934,258.995 293.267,259.828 292.5,260.5C 292.263,259.209 292.596,258.209 293.5,257.5 Z"/></g>
<g><path style="opacity:1" fill="#8a8a8a" d="M 563.5,248.5 C 562.078,254.767 560.078,260.767 557.5,266.5C 557.826,259.868 559.826,253.868 563.5,248.5 Z"/></g>
<g><path style="opacity:0.886" fill="#7c7c7c" d="M 743.5,253.5 C 746.679,260.379 748.345,267.712 748.5,275.5C 747.275,274.848 746.608,273.681 746.5,272C 745.552,265.813 744.552,259.646 743.5,253.5 Z"/></g>
<g><path style="opacity:0.494" fill="#a4a4a4" d="M 581.5,256.5 C 580.773,261.418 579.44,266.085 577.5,270.5C 577.446,265.341 578.779,260.675 581.5,256.5 Z"/></g>
<g><path style="opacity:0.086" fill="#cccccc" d="M 667.5,257.5 C 666.66,259.853 665.326,261.853 663.5,263.5C 663.622,260.708 664.956,258.708 667.5,257.5 Z"/></g>
<g><path style="opacity:0.173" fill="#b6b6b6" d="M 699.5,258.5 C 701.834,260.176 702.834,262.509 702.5,265.5C 700.707,263.574 699.707,261.241 699.5,258.5 Z"/></g>
<g><path style="opacity:0.694" fill="#9e9e9e" d="M 677.5,257.5 C 684.01,260.01 688.01,264.677 689.5,271.5C 687.442,269.073 685.609,266.407 684,263.5C 681.336,262.002 679.17,260.002 677.5,257.5 Z"/></g>
<g><path style="opacity:0.447" fill="#959595" d="M 724.5,260.5 C 727.688,265.251 729.021,270.584 728.5,276.5C 726.595,271.424 725.261,266.091 724.5,260.5 Z"/></g>
<g><path style="opacity:1" fill="#a9a9a9" d="M 291.5,262.5 C 291.088,265.802 289.755,268.469 287.5,270.5C 287.896,267.279 289.229,264.612 291.5,262.5 Z"/></g>
<g><path style="opacity:1" fill="#a0a0a0" d="M 603.5,258.5 C 601.73,263.69 599.73,268.69 597.5,273.5C 597.563,267.627 599.563,262.627 603.5,258.5 Z"/></g>
<g><path style="opacity:0.937" fill="#898989" d="M 662.5,268.5 C 664.477,273.413 666.477,278.413 668.5,283.5C 664.563,279.373 662.563,274.373 662.5,268.5 Z"/></g>
<g><path style="opacity:0.008" fill="#646464" d="M 287.5,272.5 C 288.833,279.5 288.833,286.5 287.5,293.5C 286.167,286.5 286.167,279.5 287.5,272.5 Z"/></g>
<g><path style="opacity:1" fill="#666666" d="M 689.5,271.5 C 691.25,274.133 692.25,277.133 692.5,280.5C 692.564,282.557 691.898,284.223 690.5,285.5C 690.647,280.786 690.314,276.119 689.5,271.5 Z"/></g>
<g><path style="opacity:0.918" fill="#9b9b9b" d="M 834.5,274.5 C 834.5,276.833 834.5,279.167 834.5,281.5C 834.167,281.5 833.833,281.5 833.5,281.5C 832.848,280.551 832.514,279.385 832.5,278C 832.608,276.319 833.275,275.152 834.5,274.5 Z"/></g>
<g><path style="opacity:0.616" fill="#858585" d="M 556.5,273.5 C 556.575,283.178 556.908,292.844 557.5,302.5C 556.007,296.908 555.341,291.074 555.5,285C 555.501,280.985 555.835,277.151 556.5,273.5 Z"/></g>
<g><path style="opacity:0.196" fill="#787878" d="M 702.5,265.5 C 706.02,271.58 707.687,278.247 707.5,285.5C 707.713,291.969 706.38,297.969 703.5,303.5C 704.847,297.424 705.514,291.257 705.5,285C 705.652,278.302 704.652,271.802 702.5,265.5 Z"/></g>
<g><path style="opacity:1" fill="#7f7f7f" d="M 833.5,282.5 C 833.802,285.059 833.468,287.393 832.5,289.5C 831.133,286.988 831.466,284.655 833.5,282.5 Z"/></g>
<g><path style="opacity:0.576" fill="#8b8b8b" d="M 668.5,283.5 C 671.712,285.631 674.712,287.964 677.5,290.5C 673.025,290.021 670.025,287.688 668.5,283.5 Z"/></g>
<g><path style="opacity:1" fill="#878787" d="M 689.5,287.5 C 686.671,293.875 682.671,294.875 677.5,290.5C 682.219,292.32 686.219,291.32 689.5,287.5 Z"/></g>
<g><path style="opacity:1" fill="#6d6d6d" d="M 832.5,290.5 C 832.392,295.71 831.725,300.71 830.5,305.5C 829.892,300.056 830.558,295.056 832.5,290.5 Z"/></g>
<g><path style="opacity:1" fill="#787878" d="M 287.5,294.5 C 289.552,295.053 289.885,296.053 288.5,297.5C 287.596,296.791 287.263,295.791 287.5,294.5 Z"/></g>
<g><path style="opacity:0.624" fill="#8a8a8a" d="M 288.5,298.5 C 290.614,299.784 291.614,301.784 291.5,304.5C 289.755,302.967 288.755,300.967 288.5,298.5 Z"/></g>
<g><path style="opacity:0.922" fill="#9f9f9f" d="M 748.5,297.5 C 748.795,299.735 748.461,301.735 747.5,303.5C 746.853,302.726 746.52,301.726 746.5,300.5C 746.64,298.97 747.307,297.97 748.5,297.5 Z"/></g>
<g><path style="opacity:0.655" fill="#878787" d="M 577.5,300.5 C 579.283,304.613 580.616,308.946 581.5,313.5C 578.584,309.745 577.25,305.412 577.5,300.5 Z"/></g>
<g><path style="opacity:1" fill="#838383" d="M 728.5,294.5 C 728.973,300.391 727.64,305.724 724.5,310.5C 725.23,304.915 726.563,299.582 728.5,294.5 Z"/></g>
<g><path style="opacity:0.545" fill="#acacac" d="M 597.5,298.5 C 601.48,308.823 607.146,318.156 614.5,326.5C 612.629,326.141 611.129,325.141 610,323.5C 603.675,316.182 599.508,307.849 597.5,298.5 Z"/></g>
<g><path style="opacity:0.898" fill="#848484" d="M 747.5,304.5 C 747.277,308.162 746.277,311.495 744.5,314.5C 744.025,310.584 745.025,307.251 747.5,304.5 Z"/></g>
<g><path style="opacity:0.624" fill="#898989" d="M 557.5,302.5 C 559.87,308.616 561.87,314.949 563.5,321.5C 559.551,315.898 557.551,309.565 557.5,302.5 Z"/></g>
<g><path style="opacity:0.678" fill="#8b8b8b" d="M 702.5,306.5 C 702.176,311.139 700.176,314.806 696.5,317.5C 697.742,313.345 699.742,309.678 702.5,306.5 Z"/></g>
<g><path style="opacity:0.345" fill="#b4b4b4" d="M 724.5,310.5 C 723.651,315.389 721.651,319.723 718.5,323.5C 719.727,318.718 721.727,314.385 724.5,310.5 Z"/></g>
<g><path style="opacity:1" fill="#919191" d="M 292.5,306.5 C 300.317,314.332 299.984,321.999 291.5,329.5C 293.215,325.069 295.215,320.735 297.5,316.5C 295.274,313.381 293.607,310.048 292.5,306.5 Z"/></g>
<g><path style="opacity:0.031" fill="#a0a0a0" d="M 581.5,313.5 C 584.029,317.224 586.029,321.224 587.5,325.5C 584.196,322.184 582.196,318.184 581.5,313.5 Z"/></g>
<g><path style="opacity:0.039" fill="#5c5c5c" d="M 829.5,315.5 C 829.5,318.833 829.5,322.167 829.5,325.5C 828.833,325.833 828.167,326.167 827.5,326.5C 827.808,322.64 828.475,318.974 829.5,315.5 Z"/></g>
<g><path style="opacity:1" fill="#adadad" d="M 563.5,321.5 C 565.674,324.515 567.341,327.849 568.5,331.5C 565.29,329.082 563.624,325.748 563.5,321.5 Z"/></g>
<g><path style="opacity:0.031" fill="#b6b6b6" d="M 366.5,321.5 C 363.851,324.47 360.518,326.137 356.5,326.5C 359.364,323.986 362.698,322.32 366.5,321.5 Z"/></g>
<g><path style="opacity:0.859" fill="#a9a9a9" d="M 366.5,321.5 C 367.251,320.427 368.251,320.26 369.5,321C 373.037,324.369 376.371,327.869 379.5,331.5C 375.167,328.167 370.833,324.833 366.5,321.5 Z"/></g>
<g><path style="opacity:0.157" fill="#a3a3a3" d="M 696.5,317.5 C 696.649,318.552 696.483,319.552 696,320.5C 692.5,324 689,327.5 685.5,331C 684.552,331.483 683.552,331.649 682.5,331.5C 687.5,327.167 692.167,322.5 696.5,317.5 Z"/></g>
<g><path style="opacity:0.773" fill="#a3a3a3" d="M 587.5,325.5 C 589.262,326.262 590.262,327.596 590.5,329.5C 588.738,328.738 587.738,327.404 587.5,325.5 Z"/></g>
<g><path style="opacity:0.576" fill="#a2a2a2" d="M 742.5,320.5 C 742.498,324.165 741.165,327.165 738.5,329.5C 739.059,326.057 740.393,323.057 742.5,320.5 Z"/></g>
<g><path style="opacity:1" fill="#919191" d="M 354.5,327.5 C 350.573,330.927 345.906,332.26 340.5,331.5C 340.5,331.167 340.5,330.833 340.5,330.5C 345.257,329.81 349.924,328.81 354.5,327.5 Z"/></g>
<g><path style="opacity:0.039" fill="#bababa" d="M 829.5,325.5 C 829.784,327.415 829.451,329.081 828.5,330.5C 827.566,329.432 827.232,328.099 827.5,326.5C 828.167,326.167 828.833,325.833 829.5,325.5 Z"/></g>
<g><path style="opacity:0.992" fill="#525252" d="M 340.5,330.5 C 340.5,330.833 340.5,331.167 340.5,331.5C 335.821,331.334 331.155,331.501 326.5,332C 325.364,333.145 324.364,334.312 323.5,335.5C 323.297,333.61 323.963,332.11 325.5,331C 330.489,330.501 335.489,330.334 340.5,330.5 Z"/></g>
<g><path style="opacity:0.078" fill="#b1b1b1" d="M 614.5,326.5 C 616.878,327.692 618.878,329.359 620.5,331.5C 617.301,331.238 615.301,329.572 614.5,326.5 Z"/></g>
<g><path style="opacity:1" fill="#bababa" d="M 590.5,329.5 C 592.262,330.262 593.262,331.596 593.5,333.5C 591.738,332.738 590.738,331.404 590.5,329.5 Z"/></g>
<g><path style="opacity:1" fill="#a3a3a3" d="M 291.5,329.5 C 290.831,332.849 289.164,335.516 286.5,337.5C 287.151,334.197 288.818,331.53 291.5,329.5 Z"/></g>
<g><path style="opacity:0.788" fill="#a7a7a7" d="M 620.5,331.5 C 622.404,331.738 623.738,332.738 624.5,334.5C 622.596,334.262 621.262,333.262 620.5,331.5 Z"/></g>
<g><path style="opacity:0.439" fill="#c8c8c8" d="M 682.5,331.5 C 682.027,332.906 681.027,333.573 679.5,333.5C 679.973,332.094 680.973,331.427 682.5,331.5 Z"/></g>
<g><path style="opacity:0.165" fill="#b1b1b1" d="M 738.5,329.5 C 737.723,333.408 735.723,336.408 732.5,338.5C 733.759,334.975 735.759,331.975 738.5,329.5 Z"/></g>
<g><path style="opacity:0.243" fill="#9f9f9f" d="M 679.5,333.5 C 677.421,335.873 674.754,337.206 671.5,337.5C 673.579,335.127 676.246,333.794 679.5,333.5 Z"/></g>
<g><path style="opacity:0.078" fill="#c1c1c1" d="M 323.5,335.5 C 323.245,337.967 322.245,339.967 320.5,341.5C 320.461,338.911 321.461,336.911 323.5,335.5 Z"/></g>
<g><path style="opacity:0.094" fill="#cdcdcd" d="M 624.5,334.5 C 626.97,334.654 628.97,335.654 630.5,337.5C 627.687,337.975 625.687,336.975 624.5,334.5 Z"/></g>
<g><path style="opacity:0.929" fill="#9d9d9d" d="M 717.5,325.5 C 712.242,335.093 704.908,342.76 695.5,348.5C 703.535,341.466 710.868,333.799 717.5,325.5 Z"/></g>
<g><path style="opacity:0.306" fill="#a1a1a1" d="M 593.5,333.5 C 604.887,345.191 618.22,353.858 633.5,359.5C 616.861,355.851 603.527,347.185 593.5,333.5 Z"/></g>
<g><path style="opacity:0.867" fill="#8b8b8b" d="M 828.5,331.5 C 828.802,334.059 828.468,336.393 827.5,338.5C 826.848,337.551 826.514,336.385 826.5,335C 826.608,333.319 827.275,332.152 828.5,331.5 Z"/></g>
<g><path style="opacity:0.838" fill="#7c7c7c" d="M 667.5,338.5 C 665.485,339.924 663.152,340.59 660.5,340.5C 660.611,339.883 660.944,339.383 661.5,339C 663.473,338.505 665.473,338.338 667.5,338.5 Z"/></g>
<g><path style="opacity:0.353" fill="#888888" d="M 631.5,337.5 C 640.66,339.912 649.993,340.912 659.5,340.5C 653.681,341.653 647.681,341.819 641.5,341C 637.755,340.698 634.422,339.531 631.5,337.5 Z"/></g>
<g><path style="opacity:0.416" fill="#aeaeae" d="M 286.5,337.5 C 285.59,340.992 283.924,343.992 281.5,346.5C 282.317,343.019 283.983,340.019 286.5,337.5 Z"/></g>
<g><path style="opacity:0.024" fill="#acacac" d="M 320.5,341.5 C 320.573,343.027 319.906,344.027 318.5,344.5C 318.285,342.821 318.952,341.821 320.5,341.5 Z"/></g>
<g><path style="opacity:0.929" fill="#b8b8b8" d="M 379.5,331.5 C 390.161,340.828 400.494,350.495 410.5,360.5C 399.184,351.849 388.85,342.183 379.5,331.5 Z"/></g>
<g><path style="opacity:1" fill="#727272" d="M 827.5,339.5 C 827.556,344.731 826.889,349.731 825.5,354.5C 824.861,353.903 824.528,353.07 824.5,352C 824.678,347.381 825.678,343.214 827.5,339.5 Z"/></g>
<g><path style="opacity:0.251" fill="#c6c6c6" d="M 318.5,344.5 C 318.573,346.027 317.906,347.027 316.5,347.5C 316.427,345.973 317.094,344.973 318.5,344.5 Z"/></g>
<g><path style="opacity:0.969" fill="#9d9d9d" d="M 281.5,346.5 C 281.262,348.404 280.262,349.738 278.5,350.5C 278.738,348.596 279.738,347.262 281.5,346.5 Z"/></g>
<g><path style="opacity:0.639" fill="#b7b7b7" d="M 695.5,348.5 C 694.101,349.89 692.434,350.89 690.5,351.5C 691.3,349.259 692.966,348.259 695.5,348.5 Z"/></g>
<g><path style="opacity:0.141" fill="#b3b3b3" d="M 316.5,347.5 C 315.849,350.803 314.182,353.47 311.5,355.5C 312.383,352.296 314.05,349.629 316.5,347.5 Z"/></g>
<g><path style="opacity:0.118" fill="#b9b9b9" d="M 569.5,333.5 C 574.757,340.765 580.424,347.765 586.5,354.5C 583.606,353.118 581.106,351.118 579,348.5C 575.146,343.838 571.979,338.838 569.5,333.5 Z"/></g>
<g><path style="opacity:0.18" fill="#c0c0c0" d="M 732.5,338.5 C 725.065,350.937 715.065,360.603 702.5,367.5C 713.795,359.205 723.795,349.539 732.5,338.5 Z"/></g>
<g><path style="opacity:0.788" fill="#a7a7a7" d="M 278.5,350.5 C 278.002,353.326 276.669,355.66 274.5,357.5C 275.079,354.669 276.412,352.336 278.5,350.5 Z"/></g>
<g><path style="opacity:0.859" fill="#888888" d="M 686.5,353.5 C 682.22,357.044 677.22,359.044 671.5,359.5C 676.117,356.734 681.117,354.734 686.5,353.5 Z"/></g>
<g><path style="opacity:0.922" fill="#a2a2a2" d="M 274.5,357.5 C 274.446,359.632 273.446,360.965 271.5,361.5C 271.738,359.596 272.738,358.262 274.5,357.5 Z"/></g>
<g><path style="opacity:0.796" fill="#9f9f9f" d="M 633.5,359.5 C 636.059,359.198 638.393,359.532 640.5,360.5C 638.047,361.645 635.713,361.312 633.5,359.5 Z"/></g>
<g><path style="opacity:0.275" fill="#afafaf" d="M 311.5,355.5 C 311.108,357.179 310.608,358.846 310,360.5C 307.812,363.567 305.645,366.567 303.5,369.5C 305.14,364.217 307.806,359.551 311.5,355.5 Z"/></g>
<g><path style="opacity:0.788" fill="#b9b9b9" d="M 586.5,354.5 C 590.252,357.041 593.585,360.041 596.5,363.5C 591.911,361.876 588.577,358.876 586.5,354.5 Z"/></g>
<g><path style="opacity:1" fill="#a0a0a0" d="M 642.5,360.5 C 644.415,360.216 646.081,360.549 647.5,361.5C 645.545,362.93 643.879,362.597 642.5,360.5 Z"/></g>
<g><path style="opacity:1" fill="#868686" d="M 670.5,359.5 C 666.356,361.96 662.023,362.627 657.5,361.5C 661.591,360.105 665.924,359.438 670.5,359.5 Z"/></g>
<g><path style="opacity:1" fill="#a5a5a5" d="M 271.5,361.5 C 271.771,363.38 271.104,364.713 269.5,365.5C 269.229,363.62 269.896,362.287 271.5,361.5 Z"/></g>
<g><path style="opacity:1" fill="#bbbbbb" d="M 596.5,363.5 C 598.853,364.34 600.853,365.674 602.5,367.5C 599.802,367.155 597.802,365.822 596.5,363.5 Z"/></g>
<g><path style="opacity:0.337" fill="#ababab" d="M 410.5,360.5 C 415.774,364.105 420.441,368.438 424.5,373.5C 420.878,371.476 417.544,368.976 414.5,366C 413.335,364.008 412.002,362.175 410.5,360.5 Z"/></g>
<g><path style="opacity:0.608" fill="#aeaeae" d="M 269.5,365.5 C 269.573,367.027 268.906,368.027 267.5,368.5C 267.427,366.973 268.094,365.973 269.5,365.5 Z"/></g>
<g><path style="opacity:0.298" fill="#b1b1b1" d="M 702.5,367.5 C 701.015,370.083 698.682,371.416 695.5,371.5C 697.336,369.412 699.669,368.079 702.5,367.5 Z"/></g>
<g><path style="opacity:0.149" fill="#939393" d="M 602.5,367.5 C 605.331,368.079 607.664,369.412 609.5,371.5C 606.386,371.445 604.052,370.112 602.5,367.5 Z"/></g>
<g><path style="opacity:1" fill="#5f5f5f" d="M 797.5,343.5 C 798.638,352.756 798.805,362.089 798,371.5C 797.768,372.737 797.268,373.737 796.5,374.5C 796.172,363.986 796.506,353.653 797.5,343.5 Z"/></g>
<g><path style="opacity:1" fill="#6e6e6e" d="M 609.5,371.5 C 614.88,372.695 619.88,374.695 624.5,377.5C 618.912,376.87 613.912,374.87 609.5,371.5 Z"/></g>
<g><path style="opacity:0.431" fill="#b6b6b6" d="M 303.5,369.5 C 303.262,371.404 302.262,372.738 300.5,373.5C 300.554,371.368 301.554,370.035 303.5,369.5 Z"/></g>
<g><path style="opacity:0.702" fill="#979797" d="M 693.5,372.5 C 689.777,375.523 685.444,377.189 680.5,377.5C 684.534,375.263 688.868,373.596 693.5,372.5 Z"/></g>
<g><path style="opacity:0.392" fill="#acacac" d="M 267.5,368.5 C 267.002,371.326 265.669,373.66 263.5,375.5C 263.998,372.674 265.331,370.34 267.5,368.5 Z"/></g>
<g><path style="opacity:0.031" fill="#868686" d="M 424.5,373.5 C 426.5,374.167 427.833,375.5 428.5,377.5C 426.29,377.106 424.957,375.773 424.5,373.5 Z"/></g>
<g><path style="opacity:0.663" fill="#646464" d="M 625.5,377.5 C 629.525,377.63 633.191,378.63 636.5,380.5C 632.475,380.37 628.809,379.37 625.5,377.5 Z"/></g>
<g><path style="opacity:1" fill="#747474" d="M 679.5,377.5 C 676.237,379.568 672.57,380.568 668.5,380.5C 671.686,378.126 675.353,377.126 679.5,377.5 Z"/></g>
<g><path style="opacity:0.275" fill="#9a9a9a" d="M 263.5,375.5 C 261.884,379.758 259.551,383.424 256.5,386.5C 257.589,381.978 259.922,378.311 263.5,375.5 Z"/></g>
<g><path style="opacity:1" fill="#646464" d="M 644.5,381.5 C 641.941,381.802 639.607,381.468 637.5,380.5C 640.012,379.133 642.345,379.466 644.5,381.5 Z"/></g>
<g><path style="opacity:0.514" fill="#acacac" d="M 300.5,373.5 C 299.502,377.505 297.502,380.839 294.5,383.5C 295.479,379.539 297.479,376.206 300.5,373.5 Z"/></g>
<g><path style="opacity:0.361" fill="#5c5c5c" d="M 667.5,380.5 C 665.052,381.473 662.385,381.806 659.5,381.5C 660.492,379.974 661.992,379.307 664,379.5C 665.385,379.514 666.551,379.848 667.5,380.5 Z"/></g>
<g><path style="opacity:1" fill="#888888" d="M 796.5,376.5 C 797.139,377.097 797.472,377.93 797.5,379C 797.316,380.376 796.649,381.209 795.5,381.5C 795.216,379.585 795.549,377.919 796.5,376.5 Z"/></g>
<g><path style="opacity:0.212" fill="#c9c9c9" d="M 658.5,381.5 C 654.5,382.833 650.5,382.833 646.5,381.5C 650.5,380.167 654.5,380.167 658.5,381.5 Z"/></g>
<g><path style="opacity:0.455" fill="#b7b7b7" d="M 428.5,377.5 C 433.44,380.77 437.773,384.77 441.5,389.5C 438.397,387.577 435.397,385.41 432.5,383C 431.035,381.226 429.702,379.392 428.5,377.5 Z"/></g>
<g><path style="opacity:0.071" fill="#848484" d="M 823.5,371.5 C 823.819,376.363 823.486,381.03 822.5,385.5C 821.503,380.787 821.837,376.12 823.5,371.5 Z"/></g>
<g><path style="opacity:0.914" fill="#c5c5c5" d="M 7.5,382.5 C 5.85774,383.803 4.19107,385.136 2.5,386.5C 2.96659,383.703 4.63326,382.369 7.5,382.5 Z"/></g>
<g><path style="opacity:0.569" fill="#b9b9b9" d="M 138.5,382.5 C 141.702,382.537 143.368,384.203 143.5,387.5C 141.5,386.167 139.833,384.5 138.5,382.5 Z"/></g>
<g><path style="opacity:1" fill="#a5a5a5" d="M 795.5,384.5 C 796.541,387.748 795.874,390.748 793.5,393.5C 793.42,390.219 794.087,387.219 795.5,384.5 Z"/></g>
<g><path style="opacity:0.298" fill="#a7a7a7" d="M 2.5,386.5 C 2.77089,388.38 2.10422,389.713 0.5,390.5C 0.659599,388.847 1.32627,387.514 2.5,386.5 Z"/></g>
<g><path style="opacity:0.702" fill="#b7b7b7" d="M 143.5,387.5 C 144.906,387.973 145.573,388.973 145.5,390.5C 144.094,390.027 143.427,389.027 143.5,387.5 Z"/></g>
<g><path style="opacity:0.545" fill="#969696" d="M 293.5,384.5 C 293.401,387.586 292.068,389.919 289.5,391.5C 289.998,388.674 291.331,386.34 293.5,384.5 Z"/></g>
<g><path style="opacity:0.976" fill="#a7a7a7" d="M 504.5,383.5 C 505.488,386.076 506.488,388.743 507.5,391.5C 504.429,389.483 503.429,386.817 504.5,383.5 Z"/></g>
<g><path style="opacity:0.339" fill="#adadad" d="M 256.5,386.5 C 255.921,389.331 254.588,391.664 252.5,393.5C 252.149,390.188 253.482,387.855 256.5,386.5 Z"/></g>
<g><path style="opacity:0.039" fill="#cacaca" d="M 441.5,389.5 C 443.481,391.144 445.481,392.81 447.5,394.5C 444.31,394.313 442.31,392.646 441.5,389.5 Z"/></g>
<g><path style="opacity:1" fill="#939393" d="M -0.5,391.5 C -0.166667,391.5 0.166667,391.5 0.5,391.5C 1.85281,393.128 1.51948,394.462 -0.5,395.5C -0.5,394.167 -0.5,392.833 -0.5,391.5 Z"/></g>
<g><path style="opacity:0.11" fill="#cccccc" d="M 289.5,391.5 C 289.573,393.027 288.906,394.027 287.5,394.5C 287.427,392.973 288.094,391.973 289.5,391.5 Z"/></g>
<g><path style="opacity:0.008" fill="#9b9b9b" d="M 507.5,391.5 C 509.914,392.911 511.581,394.911 512.5,397.5C 509.914,396.362 508.247,394.362 507.5,391.5 Z"/></g>
<g><path style="opacity:1" fill="#878787" d="M 252.5,393.5 C 252.201,395.455 251.201,396.789 249.5,397.5C 249.554,395.368 250.554,394.035 252.5,393.5 Z"/></g>
<g><path style="opacity:0.4" fill="#9e9e9e" d="M 145.5,390.5 C 146.913,393.219 147.58,396.219 147.5,399.5C 145.735,396.877 145.068,393.877 145.5,390.5 Z"/></g>
<g><path style="opacity:0.678" fill="#8e8e8e" d="M 793.5,393.5 C 792.422,396.908 790.089,398.908 786.5,399.5C 788.607,397.273 790.94,395.273 793.5,393.5 Z"/></g>
<g><path style="opacity:0.039" fill="#bababa" d="M 287.5,394.5 C 287.13,397.267 285.796,399.267 283.5,400.5C 283.845,397.802 285.178,395.802 287.5,394.5 Z"/></g>
<g><path style="opacity:0.375" fill="#c1c1c1" d="M 448.5,395.5 C 450.5,396.833 452.167,398.5 453.5,400.5C 450.833,399.833 449.167,398.167 448.5,395.5 Z"/></g>
<g><path style="opacity:0.008" fill="#dddddd" d="M 513.5,398.5 C 515.674,398.75 517.341,399.75 518.5,401.5C 517.833,401.5 517.167,401.5 516.5,401.5C 515.167,400.833 514.167,399.833 513.5,398.5 Z"/></g>
<g><path style="opacity:1" fill="#868686" d="M 249.5,397.5 C 249.649,398.552 249.483,399.552 249,400.5C 248.26,402.319 247.093,403.652 245.5,404.5C 246.079,401.669 247.412,399.336 249.5,397.5 Z"/></g>
<g><path style="opacity:0.204" fill="#ababab" d="M 765.5,401.5 C 768.962,400.518 772.629,400.185 776.5,400.5C 774.5,401.167 772.5,401.833 770.5,402.5C 768.708,402.634 767.042,402.301 765.5,401.5 Z"/></g>
<g><path style="opacity:1" fill="#5e5e5e" d="M 786.5,399.5 C 784.852,400.927 782.852,401.76 780.5,402C 777.183,402.498 773.85,402.665 770.5,402.5C 772.5,401.833 774.5,401.167 776.5,400.5C 779.807,399.949 783.14,399.616 786.5,399.5 Z"/></g>
<g><path style="opacity:1" fill="#515151" d="M 516.5,401.5 C 517.167,401.5 517.833,401.5 518.5,401.5C 596.5,401.5 674.5,401.5 752.5,401.5C 713.672,402.833 674.506,403.5 635,403.5C 595.833,403.333 556.667,403.167 517.5,403C 516.944,402.617 516.611,402.117 516.5,401.5 Z"/></g>
<g><path style="opacity:0.827" fill="#737373" d="M 822.5,386.5 C 821.964,395.178 820.298,403.512 817.5,411.5C 818.338,403.464 819.505,395.464 821,387.5C 821.383,386.944 821.883,386.611 822.5,386.5 Z"/></g>
<g><path style="opacity:0.796" fill="#c9c9c9" d="M 453.5,400.5 C 457.1,402.43 460.1,405.097 462.5,408.5C 458.854,406.518 455.854,403.851 453.5,400.5 Z"/></g>
<g><path style="opacity:0.063" fill="#b4b4b4" d="M 282.5,402.5 C 280.365,406.769 278.199,411.103 276,415.5C 274.483,417.24 272.983,418.906 271.5,420.5C 274.381,413.967 278.047,407.967 282.5,402.5 Z"/></g>
<g><path style="opacity:0.118" fill="#aaaaaa" d="M 462.5,408.5 C 467.071,410.738 471.071,413.738 474.5,417.5C 469.943,415.281 465.943,412.281 462.5,408.5 Z"/></g>
<g><path style="opacity:1" fill="#919191" d="M 245.5,404.5 C 242.303,410.915 238.636,416.915 234.5,422.5C 234.892,420.821 235.392,419.154 236,417.5C 238.699,412.744 241.866,408.411 245.5,404.5 Z"/></g>
<g><path style="opacity:0.369" fill="#a8a8a8" d="M 817.5,411.5 C 816.695,417.636 813.362,421.636 807.5,423.5C 811.934,420.401 815.267,416.401 817.5,411.5 Z"/></g>
<g><path style="opacity:0.369" fill="#8d8d8d" d="M 476.5,418.5 C 479.992,419.41 482.992,421.076 485.5,423.5C 481.728,423.116 478.728,421.45 476.5,418.5 Z"/></g>
<g><path style="opacity:0.539" fill="#a7a7a7" d="M 271.5,420.5 C 270.921,423.331 269.588,425.664 267.5,427.5C 267.998,424.674 269.331,422.34 271.5,420.5 Z"/></g>
<g><path style="opacity:1" fill="#5f5f5f" d="M 485.5,423.5 C 487.848,423.67 490.182,424.003 492.5,424.5C 494.03,424.64 495.03,425.307 495.5,426.5C 491.838,426.277 488.505,425.277 485.5,423.5 Z"/></g>
<g><path style="opacity:0.016" fill="#e7e7e7" d="M 807.5,423.5 C 807.027,424.906 806.027,425.573 804.5,425.5C 804.973,424.094 805.973,423.427 807.5,423.5 Z"/></g>
<g><path style="opacity:1" fill="#666666" d="M 518.5,427.5 C 511.313,427.825 504.313,427.491 497.5,426.5C 499.978,425.836 502.645,425.503 505.5,425.5C 510.093,425.379 514.426,426.046 518.5,427.5 Z"/></g>
<g><path style="opacity:0.804" fill="#a3a3a3" d="M 234.5,422.5 C 233.831,425.849 232.164,428.516 229.5,430.5C 230.169,427.151 231.836,424.484 234.5,422.5 Z"/></g>
<g><path style="opacity:0.637" fill="#9d9d9d" d="M 804.5,425.5 C 803.035,426.737 801.368,427.737 799.5,428.5C 799.5,427.833 799.5,427.167 799.5,426.5C 801.042,425.699 802.708,425.366 804.5,425.5 Z"/></g>
<g><path style="opacity:0.18" fill="#aaaaaa" d="M 562.5,426.5 C 562.5,427.167 562.5,427.833 562.5,428.5C 551.654,428.828 540.987,428.494 530.5,427.5C 540.987,426.506 551.654,426.172 562.5,426.5 Z"/></g>
<g><path style="opacity:0.18" fill="#454545" d="M 562.5,426.5 C 641.5,426.5 720.5,426.5 799.5,426.5C 799.5,427.167 799.5,427.833 799.5,428.5C 720.5,428.5 641.5,428.5 562.5,428.5C 562.5,427.833 562.5,427.167 562.5,426.5 Z"/></g>
<g><path style="opacity:0.016" fill="#bebebe" d="M 267.5,427.5 C 267.573,429.027 266.906,430.027 265.5,430.5C 265.427,428.973 266.094,427.973 267.5,427.5 Z"/></g>
<g><path style="opacity:1" fill="#777777" d="M 228.5,432.5 C 227.644,436.653 225.644,439.986 222.5,442.5C 223.283,438.395 225.283,435.061 228.5,432.5 Z"/></g>
<g><path style="opacity:0.576" fill="#aeaeae" d="M 265.5,430.5 C 264.502,434.505 262.502,437.839 259.5,440.5C 260.498,436.495 262.498,433.161 265.5,430.5 Z"/></g>
<g><path style="opacity:0.165" fill="#b5b5b5" d="M 259.5,440.5 C 259.072,444.244 257.405,447.244 254.5,449.5C 255.39,446.052 257.057,443.052 259.5,440.5 Z"/></g>
<g><path style="opacity:0.616" fill="#a2a2a2" d="M 222.5,442.5 C 221.59,445.992 219.924,448.992 217.5,451.5C 217.928,447.756 219.595,444.756 222.5,442.5 Z"/></g>
<g><path style="opacity:0.796" fill="#bebebe" d="M 254.5,449.5 C 253.502,453.505 251.502,456.839 248.5,459.5C 249.498,455.495 251.498,452.161 254.5,449.5 Z"/></g>
<g><path style="opacity:0.282" fill="#dedede" d="M 217.5,451.5 C 217.672,452.492 217.338,453.158 216.5,453.5C 193.661,453.831 170.994,453.497 148.5,452.5C 171.575,452.822 194.575,452.489 217.5,451.5 Z"/></g>
<g><path style="opacity:1" fill="#7e7e7e" d="M 147.5,404.5 C 148.496,420.325 148.83,436.325 148.5,452.5C 170.994,453.497 193.661,453.831 216.5,453.5C 193.67,454.663 170.67,454.83 147.5,454C 146.169,437.402 146.169,420.902 147.5,404.5 Z"/></g>
<g><path style="opacity:0.235" fill="#b3b3b3" d="M 247.5,461.5 C 246.873,465.42 245.207,468.753 242.5,471.5C 243.127,467.58 244.793,464.247 247.5,461.5 Z"/></g>
<g><path style="opacity:0.149" fill="#303030" d="M 230.5,472.5 C 228.833,473.167 227.167,473.833 225.5,474.5C 218.5,474.5 211.5,474.5 204.5,474.5C 212.769,472.53 221.435,471.864 230.5,472.5 Z"/></g>
<g><path style="opacity:0.149" fill="#adadad" d="M 230.5,472.5 C 233.059,472.198 235.393,472.532 237.5,473.5C 237.5,473.833 237.5,474.167 237.5,474.5C 233.5,474.5 229.5,474.5 225.5,474.5C 227.167,473.833 228.833,473.167 230.5,472.5 Z"/></g>
</svg>
